<?xml version="1.0" encoding="UTF-8" standalone="no"?>
<!-- Created with Inkscape (http://www.inkscape.org/) -->

<svg
   width="210mm"
   height="197mm"
   viewBox="0 0 210 197"
   version="1.1"
   id="svg1"
   xmlns="http://www.w3.org/2000/svg"
   xmlns:svg="http://www.w3.org/2000/svg">
  <defs
     id="defs1" />
  <g
     id="layer1">
    <path
       id="rect1"
       style="fill:#e3e3e3;fill-opacity:1;stroke:#ffffff;stroke-width:3.13571;stroke-opacity:0"
       d="m -68.265302,0.8829135 c -0.02787,0 -0.05017,0.0264939 -0.05017,0.0596002 V 198.4665 c 0,0.0331 0.0223,0.0596 0.05017,0.0596 H 270.9363 c 0.0279,0 0.051,-0.0265 0.051,-0.0596 V 0.94251367 c 0,-0.0331063 -0.0231,-0.0596002 -0.051,-0.0596002 z M 199.77,9.5646313 c 0.54799,0 1.0408,0.1471013 1.47919,0.4400467 0.46581,0.292943 0.6719,0.812879 0.6171,1.561516 -0.0548,0.976485 -0.38388,2.067705 -0.98669,3.272035 -0.60279,1.204329 -1.31528,2.424541 -2.13727,3.66142 -0.79459,1.20433 -1.61649,2.360046 -2.4659,3.466728 -0.82198,1.10668 -1.49375,2.066924 -2.01434,2.880661 -1.1508,1.887868 -2.27381,3.661254 -3.3698,5.321278 -1.0686,1.627471 -2.11017,3.271868 -3.12396,4.93189 -1.01379,1.627473 -2.01381,3.319248 -3.00021,5.076919 -0.959,1.75767 -1.90389,3.662034 -2.83548,5.71265 l 0.32862,0.293032 c 0.0548,0 0.15064,0.195472 0.28763,0.586066 0.1644,0.358043 0.23311,0.765112 0.20571,1.220804 0,0.423143 -0.19169,0.862459 -0.57528,1.318152 h 0.041 c -0.93161,0.976483 -1.93161,1.675765 -3.00021,2.09891 -1.06859,0.423143 -2.08219,0.634738 -3.04119,0.634738 -0.6576,0 -1.27423,-0.08062 -1.84963,-0.243366 -0.54798,-0.162748 -1.02806,-0.390467 -1.43906,-0.683412 -0.41099,-0.260397 -0.73926,-0.586844 -0.98584,-0.977438 -0.21921,-0.358045 -0.32946,-0.764119 -0.32946,-1.219812 0.0548,-0.390594 0.15148,-0.732173 0.28847,-1.025119 0.6576,-1.562373 1.45152,-3.092909 2.38311,-4.590185 0.93159,-1.529823 1.87733,-3.059367 2.83633,-4.589192 l 3.61646,-5.761323 c -0.0548,0.03255 -0.13707,0.04867 -0.24666,0.04867 -0.38361,0 -0.65757,-0.211597 -0.82197,-0.63474 -0.1644,-0.423142 -0.2187,-0.94407 -0.1639,-1.56251 0,-0.227846 0.0136,-0.47169 0.041,-0.732085 0.0274,-0.292945 0.0681,-0.57003 0.12292,-0.830425 0.13699,-1.725122 0.28798,-3.563996 0.45238,-5.516963 0.1644,-1.952968 0.45193,-4.00344 0.86293,-6.151704 0.0822,-0.716088 0.31545,-1.41537 0.69904,-2.09891 0.411,-0.716088 0.87665,-1.350876 1.39726,-1.904216 0.54799,-0.55334 1.1095,-0.992656 1.6849,-1.318151 0.60279,-0.358045 1.15072,-0.537393 1.64392,-0.537393 0.41099,0 0.75366,0.162231 1.02767,0.487725 0.27399,0.325497 0.43854,0.862548 0.49334,1.611185 l 0.12291,1.123459 c 0.0822,0.846285 0.16448,1.871023 0.24668,3.075354 0.1096,1.20433 0.20545,2.343923 0.28765,3.418054 l 0.37042,-0.439053 1.80783,-2.587629 c 0.52059,-0.748637 1.06853,-1.513409 1.64393,-2.294595 0.57539,-0.813736 1.16487,-1.595626 1.76768,-2.344263 0.60279,-0.781187 1.20584,-1.48047 1.80865,-2.098909 0.60279,-0.650991 1.19144,-1.204165 1.76684,-1.659857 l -0.041,0.04867 c 0.63019,-0.3254939 1.32909,-0.4887187 2.0963,-0.4887187 z M 38.042242,9.6133037 c 1.863192,0 3.205875,0.6025413 4.027872,1.8068713 0.821995,1.17178 1.205381,2.685199 1.150582,4.540518 -0.0822,1.725121 -0.493567,3.613362 -1.233364,5.663978 -0.739796,2.018065 -1.726242,3.9708 -2.959236,5.85867 -1.232993,1.855319 -2.671524,3.514845 -4.315516,4.97957 -1.616592,1.464725 -3.342663,2.490459 -5.178453,3.076348 l 0.452373,1.123459 v -0.04967 c 0.301398,0.716088 0.657638,1.514101 1.068635,2.392937 0.438397,0.846285 0.84893,1.724916 1.232527,2.636301 0.383598,0.911385 0.69912,1.806141 0.945717,2.684975 0.274,0.846286 0.396992,1.628175 0.369591,2.344263 -0.0274,0.455692 -0.150391,0.862761 -0.369591,1.220804 -0.191798,0.390594 -0.438618,0.732173 -0.740017,1.025119 -0.301398,0.292945 -0.629656,0.520664 -0.985854,0.683412 -0.328799,0.162748 -0.644319,0.24436 -0.945719,0.24436 -0.191798,0 -0.356345,-0.04937 -0.493343,-0.147013 -0.109601,-0.09765 -0.232593,-0.227632 -0.369592,-0.390379 -0.1096,-0.130199 -0.247,-0.276306 -0.411399,-0.439053 -0.1644,-0.162748 -0.383239,-0.309849 -0.657237,-0.440046 -0.493198,0.162748 -0.931711,0.244359 -1.315308,0.244359 -0.794598,0 -1.397657,-0.37482 -1.808655,-1.123457 -0.383598,-0.748639 -0.711856,-1.643393 -0.985854,-2.684975 -0.2466,-1.041583 -0.493419,-2.115687 -0.740018,-3.222369 -0.246599,-1.139231 -0.589265,-2.083351 -1.027664,-2.831988 -0.547997,1.171781 -1.068784,2.262007 -1.56198,3.271041 -0.465799,1.009033 -0.889902,1.953154 -1.2735,2.831988 l -1.274336,3.076348 c -0.301399,0.846287 -0.822184,1.447833 -1.561982,1.805878 -0.739795,0.390594 -1.506566,0.586065 -2.301162,0.586065 -0.493198,0 -0.973265,-0.0645 -1.439064,-0.194693 -0.465797,-0.130197 -0.876328,-0.309546 -1.232526,-0.537393 -0.328799,-0.227846 -0.589192,-0.504929 -0.780991,-0.830426 -0.2192,-0.325494 -0.328619,-0.69932 -0.328619,-1.122463 l 0.122919,-0.586066 c 0.0548,-0.813736 0.411039,-2.147807 1.068637,-4.003126 0.684995,-1.887869 1.548449,-4.019953 2.589644,-6.396063 1.041195,-2.408659 2.205759,-4.931688 3.493553,-7.568193 1.315193,-2.636506 2.643469,-5.110169 3.986063,-7.421179 1.342593,-2.343562 2.644558,-4.37791 3.904953,-6.10303 1.260393,-1.725121 2.369831,-2.896961 3.328827,-3.5154 0.575396,-0.325497 1.301449,-0.634827 2.178244,-0.927772 0.904195,-0.292946 1.794795,-0.552914 2.67159,-0.780759 0.876796,-0.227846 1.657974,-0.4071945 2.342971,-0.5373938 0.684997,-0.1627462 1.137084,-0.2443595 1.356282,-0.2443595 z M 72.60735,9.9063375 c 0.328799,0 0.657055,0.016124 0.985854,0.048672 0.356198,0.032551 0.698866,0.081916 1.027663,0.1470135 h 0.04097 c 0.739796,0.03255 1.274155,0.260269 1.602954,0.683412 0.328799,0.423143 0.4662,0.944072 0.4114,1.562512 -0.0274,0.650989 -0.205519,1.334147 -0.534318,2.050235 -0.301399,0.716089 -0.726339,1.400241 -1.274336,2.051232 -0.520597,0.650988 -1.150803,1.220286 -1.890599,1.708529 -0.712396,0.488242 -1.493576,0.797574 -2.342973,0.927772 -0.739795,0.227845 -1.383574,0.439443 -1.931571,0.634738 -0.520597,0.162748 -0.972684,0.341102 -1.356282,0.536399 -0.383599,0.195297 -0.726265,0.42401 -1.027664,0.684406 -0.273998,0.260395 -0.534392,0.568734 -0.780989,0.926779 l -0.245837,0.3427 c -0.493198,0.683537 -0.918138,1.350572 -1.274336,2.001563 -0.356198,0.618439 -0.658146,1.269351 -0.904745,1.952888 l -0.492509,1.269478 c 0.520597,0.260397 1.026975,0.390381 1.520171,0.390381 0.684997,0 1.370331,-0.06549 2.055327,-0.195687 0.684997,-0.162748 1.260075,-0.243366 1.725873,-0.243366 0.465798,0 0.699046,0.162231 0.699046,0.487725 0,0.0651 -0.05513,0.228323 -0.164728,0.488719 -0.219198,0.488243 -0.479592,1.00917 -0.780991,1.56251 -0.273999,0.520792 -0.615829,1.024604 -1.026826,1.512844 -0.383599,0.488243 -0.822112,0.944676 -1.31531,1.367819 -0.493197,0.390594 -1.041129,0.698932 -1.643926,0.926778 h 0.04097 c -0.547997,0.130197 -0.917809,0.227934 -1.109608,0.293032 -0.191799,0.0651 -0.36992,0.130588 -0.534319,0.195687 -0.164398,0.03255 -0.397646,0.08092 -0.699045,0.146019 -0.301398,0.03255 -0.808612,0.06579 -1.521008,0.09834 -0.246599,0.358045 -0.574856,0.861855 -0.985855,1.512844 -0.383597,0.618439 -0.766982,1.286468 -1.150582,2.002556 -0.383597,0.716088 -0.71269,1.399247 -0.98669,2.050238 -0.273999,0.618439 -0.424973,1.107118 -0.452372,1.465163 0,0.195297 0.164547,0.357528 0.493345,0.487725 0.328799,0.09765 0.712185,0.179262 1.150582,0.24436 0.438398,0.03255 0.863338,0.04867 1.274335,0.04867 h 0.821964 c 0.547997,0 1.095929,-0.03225 1.643926,-0.09735 0.575398,-0.0651 1.287877,-0.162834 2.137273,-0.293033 0.2192,0.130199 0.370174,0.276306 0.452373,0.439052 0.0822,0.162749 0.122918,0.325973 0.122918,0.48872 -0.0274,0.162748 -0.06812,0.341102 -0.122918,0.536399 -0.0274,0.162746 -0.04097,0.325971 -0.04097,0.488719 -0.0548,0.55334 0.204758,0.992656 0.780154,1.318151 0.0548,0.0651 0.08278,0.162834 0.08278,0.293034 0,0.260394 -0.137401,0.601973 -0.4114,1.025116 -0.273998,0.390594 -0.630238,0.813787 -1.068636,1.269478 -0.410998,0.488243 -0.903802,0.943682 -1.479199,1.366825 -0.547997,0.423143 -1.109504,0.748599 -1.6849,0.976445 h 0.04097 c -1.315193,0.390593 -2.479757,0.667679 -3.493553,0.830425 -0.986394,0.195297 -2.027968,0.293034 -3.123963,0.293034 h -1.890599 c -0.794596,0 -1.589349,-0.09774 -2.383945,-0.293034 -0.794596,-0.162746 -1.492665,-0.472079 -2.095462,-0.927772 -0.575398,-0.455692 -0.835792,-1.122727 -0.780991,-2.001563 0,-0.09765 0.02715,-0.244748 0.08195,-0.440045 0.410999,-2.538858 0.945357,-4.947033 1.602954,-7.225495 0.657598,-2.31101 1.452349,-4.573077 2.383945,-6.786441 0.931596,-2.245913 1.98674,-4.491855 3.164935,-6.737768 1.205594,-2.278461 2.547443,-4.671506 4.027035,-7.177814 0.3014,-0.520791 0.521074,-1.090091 0.658074,-1.708531 0.164397,-0.650988 0.300964,-1.285776 0.410563,-1.904216 0.136998,-0.61844 0.301546,-1.171616 0.493345,-1.659857 0.219198,-0.488242 0.534719,-0.845945 0.945717,-1.073793 2.13719,-0.911383 4.260219,-1.693272 6.370008,-2.344261 2.13719,-0.683539 4.055787,-1.0251189 5.75458,-1.0251189 z m 31.31737,0.098341 c 0.43839,0 0.86334,0.06449 1.27434,0.194692 0.43839,0.09765 0.82178,0.260873 1.15058,0.488718 0.3288,0.227848 0.58918,0.503938 0.78098,0.829434 0.19181,0.325494 0.27407,0.684191 0.24668,1.074785 0,0.48824 -0.2604,1.105911 -0.781,1.85455 0.822,0.520791 1.31564,1.351051 1.48004,2.490282 -0.79459,2.473758 -1.5622,4.931297 -2.302,7.372507 l -2.13727,7.323833 c -0.71239,2.40866 -1.43845,4.833951 -2.17825,7.275161 -0.73979,2.44121 -1.520137,4.897755 -2.342134,7.371514 l -0.411377,1.074785 c -0.10961,0.358043 -0.20545,0.683499 -0.28765,0.976444 -0.0822,0.292946 -0.191617,0.618401 -0.328617,0.976446 -0.438397,0.455692 -0.959174,0.813395 -1.561971,1.073791 -0.602797,0.260395 -1.191452,0.390379 -1.76685,0.390379 -0.356193,0 -0.726836,-0.04837 -1.11044,-0.146019 -0.356193,-0.0651 -0.698034,-0.195084 -1.026832,-0.390381 -0.301395,-0.162746 -0.548216,-0.374341 -0.740014,-0.634738 -0.191799,-0.260396 -0.287646,-0.569727 -0.287646,-0.927771 0.0274,-0.455691 0.191948,-1.09048 0.493345,-1.904215 0.328799,-0.846286 0.574783,-1.741042 0.739183,-2.684976 l 0.576126,-2.294598 c -0.465804,0.130199 -0.917886,0.308555 -1.356281,0.5364 -0.410998,0.227846 -0.79522,0.471691 -1.151418,0.732085 -0.328799,0.227848 -0.62991,0.439442 -0.903909,0.63474 -0.246599,0.195296 -0.438291,0.342396 -0.575291,0.440044 -0.383597,0.260397 -0.726265,0.438752 -1.027662,0.5364 -0.273999,0.0651 -0.534392,0.114464 -0.780991,0.147012 -0.2192,0 -0.438037,0.03225 -0.657237,0.09735 -0.191799,0.03255 -0.383492,0.130286 -0.575291,0.293034 -1.041195,1.72512 -2.109914,3.157921 -3.205907,4.297152 -1.095995,1.13923 -2.274132,1.708531 -3.534527,1.708531 -0.273998,0 -0.562373,-0.06549 -0.863771,-0.195688 -0.274,-0.09765 -0.519984,-0.259879 -0.739182,-0.487725 -0.2192,-0.227846 -0.397319,-0.521054 -0.534319,-0.879099 -0.164398,-0.358043 -0.2331,-0.797359 -0.2057,-1.318151 0.0274,-0.61844 0.178375,-1.367086 0.452373,-2.245922 0.246599,-0.878835 0.534138,-1.72522 0.862937,-2.538955 0.328797,-0.846286 0.643482,-1.594932 0.94488,-2.245922 0.301399,-0.683538 0.521073,-1.155102 0.658073,-1.415498 1.315194,-2.571407 2.712169,-5.142806 4.191762,-7.714214 1.479594,-2.571407 3.041953,-5.062187 4.685945,-7.470846 1.643992,-2.441209 3.370057,-4.767771 5.178451,-6.981136 1.808396,-2.245909 3.726144,-4.329619 5.753722,-6.250039 l -0.041,0.04867 1.02766,-0.487726 c 0.52059,-0.260396 1.02698,-0.488116 1.52018,-0.68341 0.52059,-0.227848 0.98625,-0.341707 1.39725,-0.341707 z m 30.24959,0.341706 c 0.8494,0 1.5483,0.194478 2.09629,0.585072 0.5754,0.390592 0.8358,1.058622 0.78099,2.002557 -0.0274,0.162746 -0.0545,0.341101 -0.0819,0.536398 0,0.195297 -0.028,0.390768 -0.0828,0.586065 v -0.04867 c -0.7124,2.083165 -1.61657,4.14976 -2.71256,6.200376 -1.096,2.050616 -2.31486,4.198823 -3.65744,6.444735 -1.3152,2.213364 -2.74017,4.573167 -4.27455,7.079474 -1.5344,2.506308 -3.08234,5.224809 -4.64414,8.15426 -0.0274,0.0651 -0.041,0.129593 -0.041,0.194693 -0.0274,0.130198 -2.6e-4,0.277299 0.0819,0.440047 0.38361,0 0.80854,-0.06549 1.27434,-0.195687 0.46581,-0.130198 0.9586,-0.276305 1.47921,-0.43905 0.52059,-0.162749 1.04138,-0.309849 1.56197,-0.440045 0.52059,-0.130198 1.02782,-0.194693 1.52102,-0.194693 0.30139,0 0.58892,0.04837 0.86293,0.14602 0.30139,0.09765 0.56179,0.211509 0.78098,0.341707 -0.0274,0.09765 -0.0418,0.179262 -0.0418,0.24436 0,0.0651 -0.0136,0.130589 -0.041,0.195687 0,0.358044 0.0687,0.667375 0.2057,0.927771 0.137,0.260396 0.28797,0.504238 0.45237,0.732084 0.1644,0.227846 0.31453,0.471691 0.45153,0.732084 0.13701,0.227846 0.20571,0.504931 0.20571,0.830424 -0.0274,0.260396 -0.0961,0.552614 -0.20571,0.878107 -0.10959,0.292947 -0.28771,0.651643 -0.53431,1.074785 -0.43839,0.748638 -0.9312,1.317937 -1.47921,1.708531 -0.52059,0.423144 -1.05495,0.732473 -1.60294,0.927771 -0.52061,0.195296 -1.02782,0.309157 -1.52102,0.341707 -0.46578,0.0651 -0.87633,0.09735 -1.23252,0.09735 -0.411,0 -0.82237,0.01712 -1.23337,0.04967 -0.411,0.03255 -0.84951,0.04867 -1.31531,0.04867 -0.4932,0 -1.0547,-0.01612 -1.6849,-0.04867 -0.63019,-0.03255 -1.39696,-0.04967 -2.30115,-0.04967 h -0.6171 c -0.1644,0.03255 -0.34252,0.04967 -0.53433,0.04967 h -0.4925 c -0.7124,0 -1.32903,-0.179347 -1.84962,-0.537391 -0.4932,-0.358045 -0.76718,-1.188305 -0.82197,-2.490282 0,-0.553342 -0.0551,-0.992656 -0.16474,-1.318151 -0.0822,-0.358044 -0.16446,-0.651255 -0.24666,-0.879101 h 0.041 c -0.0822,-0.227845 -0.12291,-0.503937 -0.12291,-0.82943 0,-0.358044 0.17812,-1.026072 0.53431,-2.002559 0.3562,-0.976483 0.80828,-2.131205 1.35628,-3.465733 0.5754,-1.367077 1.23275,-2.84825 1.97255,-4.443173 0.76719,-1.594921 1.54836,-3.189954 2.34297,-4.784878 0.7946,-1.627472 1.58935,-3.190258 2.38395,-4.687532 0.822,-1.529825 1.57519,-2.880018 2.26018,-4.0518 0.68499,-1.20433 1.28806,-2.294558 1.80865,-3.271042 0.46581,-0.846285 0.88991,-1.61205 1.2735,-2.295588 0.38361,-0.716088 0.60328,-1.139281 0.65808,-1.269478 l -0.041,0.04967 c 0.1918,-0.520791 0.54804,-1.009472 1.06863,-1.465163 0.52059,-0.455692 1.12282,-0.862761 1.80781,-1.220804 0.68501,-0.358045 1.41105,-0.634137 2.17826,-0.829434 0.76719,-0.227845 1.47968,-0.341704 2.13727,-0.341704 z m 29.87999,0 c 0.8494,0 1.5483,0.194478 2.09631,0.585072 0.57539,0.390592 0.83495,1.058622 0.78015,2.002557 -0.0274,0.162746 -0.0546,0.341101 -0.0819,0.536398 0,0.195297 -0.0272,0.390768 -0.0819,0.586065 v -0.04867 c -0.71241,2.083165 -1.61659,4.14976 -2.71258,6.200376 -1.09599,2.050616 -2.31568,4.198823 -3.65827,6.444735 -1.3152,2.213364 -2.74016,4.573167 -4.27455,7.079474 -1.53439,2.506308 -3.08234,5.224809 -4.64413,8.15426 -0.0274,0.0651 -0.041,0.129593 -0.041,0.194693 -0.0274,0.130198 -2.6e-4,0.277299 0.0819,0.440047 0.3836,0 0.80853,-0.06549 1.27434,-0.195687 0.4658,-0.130198 0.95943,-0.276305 1.48003,-0.43905 0.52061,-0.162749 1.04055,-0.309849 1.56114,-0.440045 0.5206,-0.130198 1.02782,-0.194693 1.52102,-0.194693 0.30139,0 0.58893,0.04837 0.86294,0.14602 0.30138,0.09765 0.56179,0.211509 0.78097,0.341707 -0.0274,0.09765 -0.041,0.179262 -0.041,0.24436 0,0.0651 -0.0136,0.130589 -0.041,0.195687 0,0.358044 0.0687,0.667375 0.20571,0.927771 0.13699,0.260396 0.28714,0.504238 0.45154,0.732084 0.16439,0.227846 0.31536,0.471691 0.45237,0.732084 0.13699,0.227846 0.20569,0.504931 0.20569,0.830424 -0.0274,0.260396 -0.0961,0.552614 -0.20569,0.878107 -0.10961,0.292947 -0.28772,0.651643 -0.53432,1.074785 -0.4384,0.748638 -0.93204,1.317937 -1.48004,1.708531 -0.5206,0.423144 -1.05496,0.732473 -1.60295,0.927771 -0.5206,0.195296 -1.02697,0.309157 -1.52017,0.341707 -0.46581,0.0651 -0.87718,0.09735 -1.23337,0.09735 -0.411,0 -0.82153,0.01712 -1.23252,0.04967 -0.411,0.03255 -0.84951,0.04867 -1.31531,0.04867 -0.4932,0 -1.0547,-0.01612 -1.6849,-0.04867 -0.63021,-0.03255 -1.3978,-0.04967 -2.302,-0.04967 h -0.61627 c -0.1644,0.03255 -0.34252,0.04967 -0.53431,0.04967 h -0.49335 c -0.7124,0 -1.32903,-0.179347 -1.84962,-0.537391 -0.4932,-0.358045 -0.76717,-1.188305 -0.82196,-2.490282 0,-0.553342 -0.0543,-0.992656 -0.1639,-1.318151 -0.0822,-0.358044 -0.16447,-0.651255 -0.24667,-0.879101 h 0.041 c -0.0822,-0.227845 -0.12375,-0.503937 -0.12375,-0.82943 0,-0.358044 0.17811,-1.026072 0.53432,-2.002559 0.35619,-0.976483 0.80827,-2.131205 1.35628,-3.465733 0.57539,-1.367077 1.23357,-2.84825 1.97337,-4.443173 0.76721,-1.594921 1.54754,-3.189954 2.34214,-4.784878 0.7946,-1.627472 1.58935,-3.190258 2.38395,-4.687532 0.822,-1.529825 1.5752,-2.880018 2.26019,-4.0518 0.68499,-1.20433 1.28806,-2.294558 1.80865,-3.271042 0.4658,-0.846285 0.89073,-1.61205 1.27434,-2.295588 0.3836,-0.716088 0.60243,-1.139281 0.65724,-1.269478 l -0.041,0.04967 c 0.19181,-0.520791 0.54805,-1.009472 1.06865,-1.465163 0.52059,-0.455692 1.12366,-0.862761 1.80865,-1.220804 0.68499,-0.358045 1.41105,-0.634137 2.17824,-0.829434 0.76719,-0.227845 1.47968,-0.341704 2.13727,-0.341704 z M 34.589661,17.084152 c -0.438398,0 -0.835356,0.162231 -1.191554,0.487725 -0.356198,0.325494 -0.671719,0.667074 -0.945717,1.025119 h 0.04097 l -0.534317,0.488719 -0.163892,0.146019 c -0.356198,0.65099 -0.644573,1.171918 -0.863773,1.562512 -0.191798,0.390592 -0.355508,0.716047 -0.492508,0.976444 -0.136999,0.260397 -0.260827,0.488115 -0.370426,0.683412 -0.0822,0.195297 -0.178047,0.406893 -0.287646,0.634739 -0.465799,0.943933 -0.822037,1.708705 -1.068636,2.294596 l -0.575291,1.367817 c -0.1644,0.358045 -0.273819,0.618011 -0.328618,0.780759 l 0.246672,0.24436 1.2735,-0.976445 c 0.630196,-0.358045 1.192537,-0.683501 1.685736,-0.976446 0.520597,-0.325494 0.986255,-0.684191 1.397253,-1.074785 0.410999,-0.423142 0.794384,-0.926953 1.150582,-1.512844 0.383598,-0.585889 0.766983,-1.350661 1.150582,-2.294595 0.0274,-0.390593 0.178374,-0.797661 0.452372,-1.220805 0.273999,-0.455692 0.424972,-0.911132 0.452373,-1.366823 0,-0.227848 -0.08227,-0.488808 -0.246673,-0.781753 -0.136998,-0.325494 -0.397392,-0.487725 -0.780991,-0.487725 z m 63.252714,7.274167 -2.178248,3.027675 c -0.219189,0.520791 -0.47959,1.090089 -0.780978,1.708529 -0.27401,0.585891 -0.534395,1.139066 -0.780994,1.659859 l -3.411611,6.737767 3.863984,-0.146019 c 0.383588,-1.432176 0.766981,-2.881101 1.150585,-4.345826 0.411001,-1.497276 0.835928,-2.962324 1.274315,-4.3945 l 1.191554,-4.051798 z m -0.903917,49.980473 c 0.849407,0 1.629731,0.276091 2.342128,0.829431 0.712397,0.520792 1.301874,1.237191 1.767674,2.148576 0,0.162748 0.0271,0.374344 0.0819,0.63474 0.0822,0.260395 0.15091,0.536486 0.20571,0.829432 l 0.16388,1.123457 c 0.21922,1.074133 0.30148,2.245972 0.24669,3.515401 -0.0822,1.790221 -0.38332,3.694583 -0.9039,5.71265 -0.52061,1.985517 -1.177961,3.986624 -1.972545,6.004689 -0.767187,1.985516 -1.630631,3.906004 -2.589635,5.761322 -0.958998,1.82276 -1.90389,3.45005 -2.835481,4.88223 -0.849391,1.26943 -1.781547,2.539 -2.795341,3.80843 -0.986396,1.23689 -2.068688,2.34422 -3.246881,3.3207 -1.150794,0.97649 -2.383224,1.75738 -3.698418,2.34328 -1.315193,0.61843 -2.68586,0.92777 -4.110652,0.92777 -1.589192,0 -2.931877,-0.30934 -4.027872,-0.92777 -1.068594,-0.5859 -1.931212,-1.35067 -2.588808,-2.29461 -0.630198,-0.94392 -1.082283,-2.01804 -1.356282,-3.22236 -0.246599,-1.20432 -0.342446,-2.39229 -0.287645,-3.56407 0.0548,-1.43217 0.273637,-2.92948 0.657236,-4.49185 0.383598,-1.56237 0.863667,-3.125154 1.439063,-4.687528 0.575397,-1.562374 1.205602,-3.091918 1.890599,-4.589192 0.684997,-1.497275 1.355921,-2.88071 2.013518,-4.15014 v 0.04867 c 0.438398,-0.781188 0.972758,-1.643695 1.602954,-2.587629 0.630197,-0.976484 1.287548,-1.936728 1.972545,-2.880662 0.712396,-0.976483 1.438449,-1.888356 2.178245,-2.734642 0.767196,-0.846285 1.493247,-1.561693 2.178244,-2.147582 0.958996,-0.813736 1.973424,-1.432401 3.042018,-1.855544 1.068594,-0.423142 2.109331,-0.63474 3.123127,-0.63474 0.383597,0 0.766983,0.04837 1.150574,0.146021 0.383604,0.0651 0.767822,0.179952 1.151426,0.342698 0.548004,-0.55334 1.08235,-0.960407 1.602959,-1.220803 0.547992,-0.260395 1.082349,-0.390379 1.602936,-0.390379 z m 38.592132,0 c 0.84939,0 1.63057,0.276091 2.34297,0.829431 0.7124,0.520792 1.30105,1.237191 1.76684,2.148576 0,0.162748 0.028,0.374344 0.0828,0.63474 0.0822,0.260395 0.15006,0.536486 0.20487,0.829432 l 0.16472,1.123457 c 0.21921,1.074133 0.30149,2.245972 0.24668,3.515401 -0.0822,1.790221 -0.38331,3.694583 -0.9039,5.71265 -0.52061,1.985517 -1.17879,3.986624 -1.97339,6.004689 -0.7672,1.985516 -1.62981,3.906004 -2.58881,5.761322 -0.959,1.82276 -1.90472,3.45005 -2.83631,4.88223 -0.84941,1.26943 -1.78072,2.539 -2.79451,3.80843 -0.9864,1.23689 -2.06868,2.34422 -3.24689,3.3207 -1.1508,0.97649 -2.38405,1.75738 -3.69924,2.34328 -1.3152,0.61843 -2.68504,0.92777 -4.10983,0.92777 -1.58919,0 -2.93187,-0.30934 -4.02786,-0.92777 -1.0686,-0.5859 -1.93123,-1.35067 -2.58881,-2.29461 -0.6302,-0.94392 -1.08228,-2.01804 -1.35629,-3.22236 -0.2466,-1.20432 -0.34244,-2.39229 -0.28764,-3.56407 0.0548,-1.43217 0.27364,-2.92948 0.65723,-4.49185 0.3836,-1.56237 0.86284,-3.125154 1.43824,-4.687528 0.57539,-1.562374 1.2056,-3.091918 1.89059,-4.589192 0.68501,-1.497275 1.35676,-2.88071 2.01436,-4.15014 v 0.04867 c 0.43839,-0.781188 0.97275,-1.643695 1.60294,-2.587629 0.6302,-0.976484 1.28756,-1.936728 1.97255,-2.880662 0.7124,-0.976483 1.43845,-1.888356 2.17824,-2.734642 0.76721,-0.846285 1.49326,-1.561693 2.17825,-2.147582 0.959,-0.813736 1.9726,-1.432401 3.04119,-1.855544 1.06858,-0.423142 2.11015,-0.63474 3.12396,-0.63474 0.38359,0 0.76698,0.04837 1.15057,0.146021 0.3836,0.0651 0.767,0.179952 1.15059,0.342698 0.548,-0.55334 1.08236,-0.960407 1.60295,-1.220803 0.54801,-0.260395 1.08235,-0.390379 1.60296,-0.390379 z m 29.50958,0.487725 c 0.95898,0 1.87674,0.211596 2.75352,0.634738 0.9042,0.390594 1.7405,0.911522 2.50771,1.562512 0.79459,0.650989 1.52064,1.367388 2.17824,2.148576 0.6576,0.781186 1.24625,1.545958 1.76684,2.294595 0.68499,1.009034 1.16507,2.099261 1.43906,3.271041 0.27401,1.171782 0.38343,2.375868 0.32862,3.612747 -0.0548,1.269431 -0.26006,2.620618 -0.61625,4.052794 -0.35621,1.432177 -0.82269,2.945595 -1.39809,4.540518 -0.7398,1.920418 -1.75339,3.857042 -3.0412,5.809992 -1.28778,1.95296 -2.72631,3.74347 -4.31551,5.37095 -1.58919,1.59492 -3.26012,2.89674 -5.01371,3.90578 -1.7262,1.00903 -3.42512,1.51384 -5.09651,1.51384 -0.43841,0 -0.97276,-0.0655 -1.60296,-0.1957 -0.548,0.97649 -1.16463,1.67577 -1.84962,2.09893 -0.68501,0.45568 -1.38392,0.6844 -2.09631,0.6844 -0.548,0 -1.06794,-0.13098 -1.56114,-0.39138 -0.4932,-0.26038 -0.93171,-0.61809 -1.31531,-1.07379 -0.35619,-0.42314 -0.64457,-0.94407 -0.86378,-1.56251 -0.19179,-0.61843 -0.27323,-1.26935 -0.24584,-1.95289 v -0.39038 c 0.4932,-2.79925 1.15056,-5.43614 1.97255,-7.90989 0.822,-2.47376 1.71261,-4.817447 2.67159,-7.030809 0.959,-2.245913 1.93187,-4.410244 2.91827,-6.493408 1.01379,-2.083167 1.9451,-4.133637 2.79451,-6.151704 0.1096,-0.423143 0.24616,-0.911823 0.41056,-1.465163 0.1644,-0.553342 0.34252,-1.122641 0.53432,-1.708531 0.19179,-0.585891 0.41147,-1.139066 0.65806,-1.659857 0.27401,-0.55334 0.57513,-1.00878 0.90393,-1.366825 0.35619,-0.390594 0.75398,-0.71605 1.19238,-0.976444 0.4658,-0.292946 0.93146,-0.520665 1.39725,-0.683413 0.4658,-0.162748 0.91788,-0.2776 1.35629,-0.3427 0.46579,-0.09765 0.87632,-0.146019 1.23253,-0.146019 z m -106.612733,0.24436 c 1.232993,0 2.274565,0.195472 3.123962,0.586065 0.876795,0.358044 1.589274,0.861856 2.137272,1.512844 0.986395,1.139231 1.43848,2.767504 1.35628,4.883218 -0.0822,1.790221 -0.589412,3.759079 -1.521008,5.907344 -0.547996,1.17178 -1.274049,2.034288 -2.178244,2.587629 -0.904195,0.520791 -1.781222,0.780759 -2.630618,0.780759 -0.630197,0 -1.150984,-0.146108 -1.56198,-0.439053 -0.410999,-0.292946 -0.602691,-0.666772 -0.575291,-1.122466 l -0.2057,-1.074784 c -0.410999,-0.716089 -0.986076,-1.073791 -1.725873,-1.073791 -0.767197,0 -1.671367,0.325455 -2.712562,0.976444 -1.041195,0.65099 -2.096341,1.48125 -3.164936,2.490282 -1.041195,1.009033 -2.01323,2.099261 -2.917427,3.271041 -0.876795,1.171782 -1.548556,2.278133 -2.014353,3.319715 -0.383599,0.846286 -0.712692,1.627182 -0.986691,2.343266 -0.273998,0.68354 -0.424136,1.38382 -0.451537,2.0999 -0.0548,0.7161 0.04105,1.33477 0.287646,1.85555 0.246599,0.48825 0.561283,0.89531 0.944882,1.2208 0.410998,0.32549 0.863084,0.56934 1.356282,0.7321 0.493196,0.13019 0.986838,0.19468 1.480034,0.19468 0.821997,0 1.630323,-0.16224 2.424918,-0.48773 0.821996,-0.35805 1.561621,-0.76511 2.219217,-1.22079 0.684997,-0.48825 1.260076,-0.97593 1.725873,-1.46417 0.465797,-0.52081 0.767745,-0.92788 0.904745,-1.22082 l 0.122918,-0.19568 -0.2057,-0.39038 c -0.602797,0.35805 -1.150729,0.53739 -1.643926,0.53739 -0.465798,0.0326 -0.862757,-0.0813 -1.191554,-0.34169 -0.301399,-0.29295 -0.60251,-0.60229 -0.90391,-0.92778 -0.164399,-0.1953 -0.356091,-0.3424 -0.575291,-0.440051 -0.191799,-0.130197 -0.369918,-0.244057 -0.534317,-0.341706 -0.1644,-0.09765 -0.301801,-0.211507 -0.4114,-0.341706 -0.0822,-0.162746 -0.122918,-0.358218 -0.122918,-0.586066 0.0274,-0.716086 0.328511,-1.350874 0.903909,-1.904216 0.575398,-0.585889 1.274304,-1.073578 2.096299,-1.46417 0.849396,-0.390594 1.739994,-0.683802 2.67159,-0.879099 0.958995,-0.227846 1.835186,-0.341706 2.629782,-0.341706 1.589191,0 2.685055,0.341579 3.287853,1.025118 0.630196,0.683539 0.918571,1.643783 0.863773,2.880663 -0.0274,0.683537 -0.151228,1.416062 -0.370428,2.197249 -0.191799,0.74863 -0.452192,1.51341 -0.780991,2.29459 -0.301398,0.74865 -0.643229,1.46504 -1.026826,2.14858 -0.383599,0.68354 -0.781394,1.28607 -1.192391,1.80688 -0.575397,0.71608 -1.37015,1.59471 -2.383944,2.6363 -1.013796,1.00902 -2.219079,2.00152 -3.616472,2.97801 -1.369994,0.94392 -2.904371,1.75807 -4.603163,2.44161 -1.698791,0.68352 -3.493561,1.02512 -5.384152,1.02512 -1.561793,0 -2.890905,-0.19549 -3.986899,-0.58609 -1.068595,-0.39057 -1.931212,-0.95987 -2.588809,-1.70852 -0.630197,-0.74864 -1.068709,-1.6605 -1.315308,-2.73463 -0.246599,-1.10668 -0.342446,-2.37627 -0.287646,-3.80845 0.0822,-1.82276 0.410458,-3.80775 0.985854,-5.95602 0.602798,-2.180801 1.383978,-4.345133 2.342973,-6.493398 0.986395,-2.180813 2.123813,-4.280649 3.411607,-6.298714 1.287794,-2.050616 2.671197,-3.857244 4.15079,-5.419617 0.904196,-0.911385 1.739667,-1.708404 2.506864,-2.391944 0.767196,-0.716088 1.548375,-1.350876 2.34297,-1.904216 0.821997,-0.55334 1.712595,-1.04202 2.671591,-1.465163 0.958995,-0.423143 2.068433,-0.830212 3.328826,-1.220806 0.547999,-0.162746 1.151058,-0.276607 1.808654,-0.341706 0.684997,-0.09765 1.246501,-0.146019 1.684901,-0.146019 z m 33.455498,9.715776 c -1.041195,1.269429 -2.205759,2.734477 -3.493553,4.394499 -1.287794,1.660022 -2.548205,3.433408 -3.7812,5.321278 -1.232994,1.855319 -2.35684,3.775805 -3.370636,5.76132 -0.986394,1.98552 -1.726018,3.92213 -2.219216,5.81 l -0.122918,0.92777 c 0.0274,0.16276 0.05455,0.42372 0.08195,0.78175 0.0548,0.32551 0.137073,0.68321 0.246672,1.07378 0.109599,0.35806 0.260573,0.71576 0.452373,1.07381 0.191799,0.32549 0.437783,0.57032 0.739181,0.73308 l 0.740018,-0.63474 c 0.191799,-0.16275 0.397064,-0.32597 0.616263,-0.48872 0.246599,-0.1953 0.452701,-0.4069 0.6171,-0.63474 1.150794,-1.36707 2.260231,-3.01049 3.328827,-4.9309 1.095993,-1.95297 2.068865,-4.020556 2.918262,-6.201369 0.849396,-2.180815 1.561874,-4.393516 2.137272,-6.639429 0.575396,-2.245913 0.945209,-4.361872 1.109609,-6.347389 z m 38.592965,0 c -1.04121,1.269429 -2.20577,2.734477 -3.49356,4.394499 -1.2878,1.660022 -2.5482,3.433408 -3.7812,5.321278 -1.23299,1.855319 -2.35685,3.775805 -3.37064,5.76132 -0.98639,1.98552 -1.72601,3.92213 -2.21921,5.81 l -0.12375,0.92777 c 0.0274,0.16276 0.0554,0.42372 0.0828,0.78175 0.0548,0.32551 0.13707,0.68321 0.24666,1.07378 0.1096,0.35806 0.25974,0.71576 0.45153,1.07381 0.19181,0.32549 0.43862,0.57032 0.74003,0.73308 l 0.74002,-0.63474 c 0.1918,-0.16275 0.39707,-0.32597 0.61626,-0.48872 0.2466,-0.1953 0.45187,-0.4069 0.61627,-0.63474 1.15079,-1.36707 2.26105,-3.01049 3.32965,-4.9309 1.09601,-1.95297 2.06888,-4.020556 2.91827,-6.201369 0.84939,-2.180815 1.56103,-4.393516 2.13643,-6.639429 0.5754,-2.245913 0.94606,-4.361872 1.11046,-6.347389 z m 34.1537,0.830426 c -0.7672,1.432176 -1.3287,2.684635 -1.68489,3.758766 -0.3288,1.074131 -0.71304,2.132112 -1.15143,3.173694 l -1.84962,4.345826 -1.6849,4.637865 c -0.0822,0.39059 -0.16448,0.73217 -0.24668,1.02511 -0.0548,0.26041 -0.13707,0.53749 -0.24667,0.83044 -0.0822,0.26038 -0.17805,0.5536 -0.28765,0.87909 -0.10959,0.3255 -0.23258,0.71544 -0.36959,1.17114 l -0.57528,2.39293 2.30115,-1.46515 c 0.7946,-0.52081 1.58935,-1.07398 2.38395,-1.65987 0.79459,-0.61844 1.54863,-1.28546 2.26103,-2.00156 0.7398,-0.71609 1.41071,-1.49699 2.01352,-2.34326 0.60279,-0.846294 1.11,-1.758165 1.521,-2.73465 h -0.0418 c 0.9042,-1.887868 1.39785,-3.629007 1.48005,-5.22393 0.0548,-1.497275 -0.2743,-2.734603 -0.98671,-3.711087 -0.68499,-1.009034 -1.62988,-2.033772 -2.83547,-3.075354 z M 51.687001,138.33021 c 0.876796,0 1.671549,0.19547 2.383945,0.58606 0.739797,0.35805 1.370003,0.8951 1.890601,1.61118 0.520597,0.68354 0.903981,1.52993 1.15058,2.53896 0.273998,0.97648 0.383418,2.08283 0.328619,3.31972 -0.0548,1.30197 -0.260066,2.71864 -0.616265,4.24848 -0.328797,1.49727 -0.753737,2.99456 -1.274336,4.49185 -0.493196,1.46472 -1.068274,2.88039 -1.725871,4.24747 -0.630197,1.33454 -1.273975,2.50638 -1.931573,3.51541 -0.630196,0.94394 -1.342675,1.80644 -2.137271,2.58762 -0.767197,0.74865 -1.575522,1.39955 -2.424918,1.9529 -0.849396,0.52078 -1.712013,0.92785 -2.588808,1.22079 -0.849396,0.29295 -1.657722,0.43906 -2.424918,0.43906 -0.794596,0 -1.535057,-0.16222 -2.220053,-0.48773 -0.657598,-0.35803 -1.259821,-0.9122 -1.807817,-1.66085 -0.630199,1.52983 -1.206113,3.04425 -1.72671,4.54152 -0.493197,1.49727 -0.931711,3.02682 -1.315308,4.58919 v -0.0487 c -0.767197,1.62746 -1.698514,2.87992 -2.794508,3.75876 -1.095995,0.87883 -2.342833,1.31915 -3.740226,1.31915 -1.123395,0 -2.096267,-0.30934 -2.918264,-0.92777 -0.794596,-0.61844 -1.164409,-1.56257 -1.109608,-2.832 0,-0.0976 0.01357,-0.19537 0.04097,-0.29302 0,-0.0977 0.01441,-0.2115 0.04181,-0.34171 v 0.0487 c 1.287794,-3.28749 2.657624,-6.60754 4.109816,-9.96013 1.452193,-3.38515 2.931443,-6.52584 4.438435,-9.42275 0.575398,-1.10668 1.041056,-2.00243 1.397255,-2.68597 0.356198,-0.68354 0.671719,-1.26897 0.945717,-1.75721 0.301398,-0.48824 0.588939,-0.94367 0.862937,-1.36681 0.301398,-0.4557 0.657638,-0.99274 1.068636,-1.6112 0.986395,-1.49727 1.808293,-2.70234 2.46589,-3.61372 0.684996,-0.94394 1.288057,-1.72484 1.808654,-2.34328 0.547997,-0.61843 1.095929,-1.13937 1.643926,-1.56251 0.547998,-0.42313 1.191777,-0.87858 1.931573,-1.36682 1.232993,-0.74863 2.315285,-1.38342 3.246881,-1.90423 0.958995,-0.55333 1.959012,-0.83041 3.000207,-0.83041 z m 60.334439,0.19568 h 0.78099 c 0.2466,0 0.49341,0.0161 0.74001,0.0487 h -0.041 c 0.68499,0.22786 1.19137,0.60267 1.52017,1.12346 l -0.1639,1.12247 0.65725,0.19569 c 0.2466,0.0651 0.47985,0.1467 0.69903,0.24435 0.2466,0.0651 0.45188,0.19508 0.61627,0.39038 0.1644,0.1953 0.2874,0.48751 0.3696,0.87811 0.10959,0.35805 0.15114,0.86284 0.12375,1.51383 0,0.16276 -0.0136,0.32597 -0.041,0.48873 0,0.16275 -0.0136,0.32497 -0.041,0.48772 -0.38361,1.79022 -1.01381,3.58072 -1.89061,5.37094 -0.87679,1.75767 -1.87681,3.48268 -3.00021,5.17527 -1.12338,1.66002 -2.28795,3.25504 -3.49355,4.78487 -1.20558,1.49727 -2.31586,2.88071 -3.32965,4.15014 -0.9864,1.23688 -1.8083,2.32711 -2.4659,3.27105 -0.65759,0.91138 -1.00026,1.61166 -1.02767,2.0999 0,0.35803 0.0823,0.65025 0.24668,0.87811 l 4.56219,0.58606 c 0.8494,0 1.45245,0.17934 1.80866,0.53739 0.35619,0.32549 0.52073,0.78092 0.49334,1.36681 -0.0548,1.26943 -0.52046,2.37578 -1.39725,3.31972 -0.8768,0.91138 -2.00066,1.66005 -3.37064,2.24594 -1.34259,0.61843 -2.84982,1.07486 -4.521217,1.36781 -1.671381,0.29294 -3.342312,0.43905 -5.013695,0.43905 -0.821997,0 -1.67189,-0.0161 -2.54868,-0.0487 -0.876796,-0.0326 -1.685121,-0.17867 -2.424917,-0.43905 -0.739797,-0.26041 -1.34202,-0.70071 -1.807818,-1.31914 -0.465798,-0.61845 -0.671899,-1.49708 -0.6171,-2.63632 0.0274,-0.71608 0.0961,-1.31764 0.2057,-1.80588 0.137,-0.52079 0.328692,-1.02558 0.575291,-1.51382 0.273998,-0.48824 0.603093,-1.00918 0.986691,-1.56251 0.383599,-0.55335 0.862829,-1.22038 1.438227,-2.00156 l 0.534317,-0.7331 c 1.287799,-1.72511 2.521053,-3.25465 3.69926,-4.58919 1.178185,-1.33451 2.342749,-2.62022 3.493543,-3.85709 1.150781,-1.26943 2.328908,-2.55514 3.534508,-3.85712 1.2056,-1.33453 2.466,-2.83182 3.7812,-4.49185 l 0.20569,-0.29302 c 0.13701,-0.19529 0.30155,-0.45527 0.49335,-0.78076 0.2192,-0.32549 0.5746,-0.96028 1.0678,-1.90422 -1.50699,0.35805 -2.84883,0.53739 -4.02704,0.53739 -0.49318,0 -1.0691,-0.0171 -1.7267,-0.0497 -0.6302,-0.0651 -1.23325,-0.19507 -1.808647,-0.39036 -0.547997,-0.1953 -1.013654,-0.50464 -1.397254,-0.92778 -0.356197,-0.42316 -0.506337,-1.02469 -0.451527,-1.80588 0.0548,-1.17178 0.561167,-2.21364 1.520161,-3.12502 0.986397,-0.94394 2.192517,-1.74095 3.617307,-2.39195 1.42478,-0.68354 2.93119,-1.20446 4.52038,-1.56251 1.58919,-0.35805 3.02771,-0.53739 4.31552,-0.53739 z m 33.74314,0 h 0.78098 c 0.2466,0 0.49343,0.0161 0.74002,0.0487 h -0.041 c 0.685,0.22786 1.19138,0.60267 1.52018,1.12346 l -0.1639,1.12247 0.65724,0.19569 c 0.2466,0.0651 0.47985,0.1467 0.69904,0.24435 0.2466,0.0651 0.45187,0.19508 0.61627,0.39038 0.1644,0.1953 0.28739,0.48751 0.36959,0.87811 0.1096,0.35805 0.15115,0.86284 0.12376,1.51383 0,0.16276 -0.0136,0.32597 -0.041,0.48873 0,0.16275 -0.0144,0.32497 -0.0418,0.48772 -0.3836,1.79022 -1.0138,3.58072 -1.8906,5.37094 -0.87679,1.75767 -1.87681,3.48268 -3.00021,5.17527 -1.12339,1.66002 -2.28795,3.25504 -3.49355,4.78487 -1.20559,1.49727 -2.31502,2.88071 -3.32883,4.15014 -0.9864,1.23688 -1.80828,2.32711 -2.46588,3.27105 -0.6576,0.91138 -1.00026,1.61166 -1.02767,2.0999 0,0.35803 0.0823,0.65025 0.24668,0.87811 l 4.56218,0.58606 c 0.8494,0 1.45246,0.17934 1.80866,0.53739 0.3562,0.32549 0.5199,0.78092 0.49251,1.36681 -0.0548,1.26943 -0.52047,2.37578 -1.39725,3.31972 -0.8768,0.91138 -1.99982,1.66005 -3.3698,2.24594 -1.34261,0.61843 -2.84984,1.07486 -4.52123,1.36781 -1.67138,0.29294 -3.34234,0.43905 -5.01372,0.43905 -0.822,0 -1.67188,-0.0161 -2.54868,-0.0487 -0.87679,-0.0326 -1.68511,-0.17867 -2.42491,-0.43905 -0.73979,-0.26041 -1.34286,-0.70071 -1.80865,-1.31914 -0.4658,-0.61845 -0.67106,-1.49708 -0.61627,-2.63632 0.0274,-0.71608 0.0961,-1.31764 0.20571,-1.80588 0.13699,-0.52079 0.32869,-1.02558 0.57528,-1.51382 0.274,-0.48824 0.6031,-1.00918 0.98669,-1.56251 0.38361,-0.55335 0.86284,-1.22038 1.43824,-2.00156 l 0.53431,-0.7331 c 1.28779,-1.72511 2.52106,-3.25465 3.69925,-4.58919 1.1782,-1.33451 2.34277,-2.62022 3.49356,-3.85709 1.15078,-1.26943 2.32893,-2.55514 3.53453,-3.85712 1.20558,-1.33453 2.466,-2.83182 3.7812,-4.49185 l 0.20485,-0.29302 c 0.137,-0.19529 0.30155,-0.45527 0.49334,-0.78076 0.21921,-0.32549 0.57545,-0.96028 1.06865,-1.90422 -1.50699,0.35805 -2.84968,0.53739 -4.02787,0.53739 -0.4932,0 -1.06829,-0.0171 -1.72588,-0.0497 -0.63019,-0.0651 -1.23326,-0.19507 -1.80866,-0.39036 -0.54798,-0.1953 -1.01364,-0.50464 -1.39724,-0.92778 -0.3562,-0.42316 -0.50718,-1.02469 -0.45238,-1.80588 0.0548,-1.17178 0.56202,-2.21364 1.521,-3.12502 0.9864,-0.94394 2.19169,-1.74095 3.61648,-2.39195 1.42479,-0.68354 2.93202,-1.20446 4.52121,-1.56251 1.58921,-0.35805 3.02773,-0.53739 4.31553,-0.53739 z m -62.924078,0.53739 c 0.547997,0 1.014491,0.17836 1.39809,0.5364 0.410997,0.35805 0.589118,0.91222 0.534318,1.66085 -0.0548,0.68354 -0.30162,1.51282 -0.740018,2.4893 h -0.04097 c -1.561793,3.58043 -2.98675,6.83599 -4.274544,9.76545 -1.260395,2.89689 -2.424959,5.56602 -3.493553,8.00723 -1.068596,2.40867 -2.055041,4.63749 -2.959236,6.68811 -0.904196,2.05062 -1.767649,4.00434 -2.589644,5.85966 -0.383599,1.26943 -0.889977,2.26192 -1.520173,2.97801 -0.602797,0.71608 -1.233003,1.23702 -1.890599,1.56251 -0.657598,0.35805 -1.27423,0.56963 -1.849627,0.63473 -0.575397,0.0976 -1.000337,0.14603 -1.274337,0.14603 -1.342592,0 -2.260337,-0.19549 -2.753535,-0.58606 -0.493197,-0.35805 -0.726445,-0.86186 -0.699046,-1.51286 0.0274,-0.52079 0.178375,-1.15558 0.452374,-1.9042 0.273998,-0.74865 0.603091,-1.57891 0.986691,-2.49029 0.876795,-1.88786 1.876812,-4.08545 3.000207,-6.59175 1.123395,-2.53886 2.259978,-5.09314 3.410772,-7.66454 1.178195,-2.60397 2.315614,-5.07763 3.411608,-7.42119 1.123394,-2.34356 2.136986,-4.28117 3.041181,-5.81099 0.547998,-0.91138 1.041638,-1.51293 1.480036,-1.80588 0.465797,-0.29294 0.904311,-0.50454 1.315308,-0.63473 0.410999,-0.16276 0.807957,-0.35823 1.191556,-0.58607 0.383597,-0.22786 0.780555,-0.73265 1.191554,-1.51384 0.301397,-0.58589 0.699192,-1.02521 1.19239,-1.31815 0.520598,-0.32549 1.013401,-0.48773 1.4792,-0.48773 z m 97.077778,0.29304 c 0.43841,0 0.86334,0.0645 1.27433,0.19469 0.43841,0.0976 0.82179,0.26088 1.15059,0.48872 0.3288,0.22784 0.5892,0.50395 0.78099,0.82943 0.1918,0.32549 0.27408,0.6842 0.24667,1.07479 0,0.48824 -0.26039,1.10591 -0.78098,1.85455 0.822,0.52079 1.31563,1.35105 1.48003,2.49027 -0.7946,2.47377 -1.5622,4.9313 -2.30199,7.37252 l -2.13728,7.32382 c -0.7124,2.40867 -1.43844,4.83397 -2.17824,7.27516 -0.7398,2.44121 -1.52014,4.89876 -2.34214,7.37252 l -0.4114,1.07379 c -0.1096,0.35805 -0.20545,0.6835 -0.28765,0.97644 -0.0822,0.29295 -0.19162,0.6184 -0.32861,0.97645 -0.43841,0.4557 -0.95919,0.8134 -1.56199,1.07378 -0.60279,0.26041 -1.19228,0.39139 -1.76768,0.39139 -0.35619,0 -0.72601,-0.0494 -1.10961,-0.14701 -0.3562,-0.0651 -0.69802,-0.19509 -1.02682,-0.39039 -0.3014,-0.16275 -0.54823,-0.37435 -0.74002,-0.63473 -0.1918,-0.2604 -0.28765,-0.56974 -0.28765,-0.92778 0.0274,-0.4557 0.19195,-1.09049 0.49336,-1.90422 0.32879,-0.84629 0.57478,-1.74104 0.73916,-2.68497 l 0.5753,-2.2946 c -0.4658,0.13019 -0.91788,0.30855 -1.35628,0.53639 -0.41099,0.22786 -0.79439,0.4717 -1.15058,0.7321 -0.3288,0.22784 -0.62991,0.43943 -0.90391,0.63473 -0.2466,0.1953 -0.43829,0.34241 -0.5753,0.44005 -0.38358,0.26041 -0.72625,0.43975 -1.02766,0.5374 -0.27399,0.0651 -0.53439,0.11347 -0.78099,0.14601 -0.21919,0 -0.43804,0.0323 -0.65722,0.0974 -0.19181,0.0325 -0.38434,0.13027 -0.57615,0.29302 -1.04118,1.72513 -2.10907,3.15793 -3.20506,4.29715 -1.096,1.13924 -2.27413,1.70854 -3.53453,1.70854 -0.274,0 -0.56238,-0.0655 -0.86376,-0.19568 -0.27401,-0.0976 -0.52,-0.25988 -0.73919,-0.48774 -0.2192,-0.22784 -0.39732,-0.52106 -0.53433,-0.87909 -0.1644,-0.35805 -0.23308,-0.79737 -0.20569,-1.31816 0.0274,-0.61843 0.17838,-1.36708 0.45237,-2.24591 0.2466,-0.87884 0.53414,-1.72523 0.86294,-2.53896 0.3288,-0.84629 0.64349,-1.59494 0.94487,-2.24593 0.30141,-0.68354 0.52108,-1.1551 0.65809,-1.4155 1.31519,-2.57141 2.71217,-5.14281 4.19176,-7.71421 1.47959,-2.57141 3.04111,-5.06219 4.68511,-7.47084 1.64399,-2.44121 3.3709,-4.76778 5.17929,-6.98114 1.80839,-2.24591 3.72615,-4.32963 5.75373,-6.25004 l -0.041,0.0487 1.02766,-0.48772 c 0.52061,-0.2604 1.02698,-0.48813 1.52018,-0.68342 0.52059,-0.22784 0.98625,-0.3417 1.39725,-0.3417 z m -131.601078,8.54365 c -1.69879,2.73416 -3.110177,5.19169 -4.233571,7.3725 l -0.575291,1.12345 c -0.465797,1.00903 -0.97301,1.9854 -1.521008,2.92934 -0.520598,0.94394 -1.026975,1.90419 -1.520172,2.88067 l 0.204863,0.34169 c 1.315194,-0.32548 2.43904,-0.9764 3.370636,-1.95289 0.931596,-0.97646 1.698365,-2.11607 2.301162,-3.41804 0.602797,-1.33454 1.054884,-2.75021 1.356282,-4.2475 0.328799,-1.52981 0.521327,-3.01099 0.576127,-4.44316 v -0.29304 c 0.0274,-0.0977 0.04097,-0.19537 0.04097,-0.29302 z m 125.518718,5.80999 -2.17824,3.02768 c -0.21921,0.52078 -0.47959,1.09008 -0.781,1.70852 -0.27399,0.58589 -0.53439,1.13906 -0.78099,1.65987 l -3.41159,6.73776 3.86396,-0.14603 c 0.38361,-1.43216 0.76698,-2.88109 1.15059,-4.34582 0.411,-1.49727 0.83594,-2.96232 1.27434,-4.39449 l 1.19155,-4.05181 z" />
  </g>
</svg>
