<?xml version="1.0" encoding="UTF-8" standalone="no"?>
<!-- Created with Inkscape (http://www.inkscape.org/) -->

<svg
   width="210mm"
   height="197mm"
   viewBox="0 0 210 197"
   version="1.1"
   id="svg1"
   xmlns="http://www.w3.org/2000/svg"
   xmlns:svg="http://www.w3.org/2000/svg">
  <defs
     id="defs1" />
  <path
     id="rect1"
     style="fill:#274b3a;fill-opacity:1;stroke:#ffffff;stroke-width:1.778;stroke-opacity:0"
     d="m -2.6086263,-0.48007406 c -0.017223,0 -0.031006,0.013783 -0.031006,0.0310059 V 200.8079 c 0,0.0172 0.013783,0.0315 0.031006,0.0315 H 216.1651 c 0.0172,0 0.031,-0.0143 0.031,-0.0315 V -0.4490682 c 0,-0.0172229 -0.0138,-0.0310059 -0.031,-0.0310059 z M 200.01156,6.3525838 c 0.76383,0 1.45135,0.2090604 2.06241,0.6273519 0.64925,0.4182916 0.93525,1.1619043 0.85886,2.2308716 -0.0764,1.3943047 -0.53438,2.9513897 -1.37459,4.6710327 -0.84021,1.719643 -1.83341,3.462502 -2.97915,5.228621 -1.10754,1.719643 -2.25307,3.369357 -3.437,4.949569 -1.14573,1.580213 -2.08143,2.951523 -2.80706,4.113444 -1.60403,2.695657 -3.16974,5.228184 -4.69739,7.598503 -1.48945,2.323842 -2.94066,4.671112 -4.35374,7.04143 -1.41307,2.323842 -2.80729,4.740971 -4.18217,7.250721 -1.33669,2.509749 -2.65423,5.228567 -3.95273,8.156608 l 0.45837,0.418062 c 0.0764,0 0.21005,0.278919 0.40101,0.836641 0.22915,0.511246 0.32448,1.092371 0.28629,1.743047 0,0.604198 -0.26735,1.231379 -0.80202,1.882055 h 0.0574 c -1.2985,1.394305 -2.69272,2.393551 -4.18218,2.99775 -1.48945,0.604199 -2.90232,0.906405 -4.23901,0.906405 -0.91659,0 -1.77613,-0.116432 -2.57814,-0.348816 -0.76382,-0.232384 -1.43218,-0.55736 -2.00505,-0.975651 -0.57286,-0.371815 -1.03087,-0.836508 -1.37459,-1.39423 -0.30553,-0.511246 -0.45837,-1.092371 -0.45837,-1.743047 0.0764,-0.557722 0.21005,-1.045701 0.40101,-1.463993 0.91659,-2.230888 2.02429,-4.415154 3.32279,-6.553088 1.29851,-2.184412 2.61604,-4.369194 3.95273,-6.553605 l 5.04104,-8.226372 c -0.0764,0.04648 -0.19088,0.06976 -0.34365,0.06976 -0.53467,0 -0.91652,-0.302206 -1.14566,-0.906405 -0.22915,-0.604199 -0.30531,-1.347812 -0.22893,-2.230872 0,-0.325338 0.0187,-0.673599 0.0568,-1.045414 0.0382,-0.418291 0.0957,-0.813643 0.17209,-1.185457 0.19095,-2.463273 0.40078,-5.088945 0.62993,-7.877556 0.22915,-2.78861 0.63016,-5.717005 1.20303,-8.784476 0.11457,-1.022491 0.43942,-2.021737 0.9741,-2.99775 0.57287,-1.022491 1.22205,-1.928591 1.94768,-2.718697 0.76383,-0.790107 1.54668,-1.417804 2.3487,-1.882573 0.8402,-0.5112449 1.60389,-0.7668779 2.29133,-0.7668779 0.57287,0 1.05056,0.2328634 1.43247,0.6976319 0.38191,0.464768 0.61092,1.231667 0.6873,2.300635 l 0.17208,1.603003 c 0.11457,1.208397 0.22908,2.672853 0.34365,4.392496 0.15276,1.719643 0.28644,3.34607 0.40101,4.879806 l 0.51573,-0.627352 2.52026,-3.694865 c 0.72563,-1.068967 1.48983,-2.161358 2.29185,-3.276803 0.80201,-1.16192 1.62269,-2.277081 2.4629,-3.346049 0.8402,-1.115444 1.68057,-2.114689 2.52077,-2.9977493 0.84021,-0.9295368 1.6614,-1.7197222 2.46342,-2.370398 l -0.0574,0.069763 c 0.8784,-0.4647684 1.85243,-0.6971151 2.92178,-0.6971151 z M 46.196147,6.4218302 c 2.597001,0 4.468391,0.8600445 5.614127,2.5796875 1.145736,1.6731663 1.680419,3.8341453 1.604037,6.4833253 -0.114574,2.463272 -0.687079,5.159321 -1.718242,8.087362 -1.031162,2.881564 -2.406209,5.670241 -4.124812,8.365897 -1.718604,2.64918 -3.723665,5.01922 -6.015137,7.110677 -2.253281,2.091458 -4.659354,3.555397 -7.218164,4.39198 l 0.629935,1.60352 v -0.06976 c 0.420104,1.02249 0.916964,2.161454 1.489832,3.416329 0.611059,1.208398 1.183565,2.463276 1.718241,3.764628 0.534677,1.301351 0.974029,2.579516 1.317749,3.834391 0.381912,1.208398 0.553922,2.323559 0.515731,3.346049 -0.03819,0.650676 -0.210201,1.231801 -0.515731,1.743046 -0.267338,0.557722 -0.610841,1.045702 -1.030944,1.463993 -0.420104,0.418292 -0.878625,0.743784 -1.37511,0.976168 -0.458295,0.232384 -0.897646,0.348299 -1.317749,0.348299 -0.267339,0 -0.496341,-0.06986 -0.687297,-0.209289 -0.152765,-0.139431 -0.324775,-0.325205 -0.515731,-0.557589 -0.152764,-0.185907 -0.343427,-0.394968 -0.572575,-0.627352 -0.229147,-0.232384 -0.534827,-0.441444 -0.916739,-0.627352 -0.687442,0.232385 -1.298287,0.3483 -1.832964,0.3483 -1.107544,0 -1.947908,-0.534036 -2.520776,-1.603003 -0.534677,-1.068968 -0.993198,-2.347133 -1.37511,-3.834392 -0.343721,-1.487259 -0.687224,-3.021057 -1.030945,-4.601269 -0.34372,-1.62669 -0.820894,-2.974714 -1.431954,-4.043681 -0.763823,1.673166 -1.489686,3.230251 -2.177128,4.671033 -0.64925,1.440782 -1.241442,2.788806 -1.776119,4.043681 l -1.775602,4.39198 c -0.420103,1.208397 -1.145966,2.067925 -2.177128,2.57917 -1.031162,0.557722 -2.100528,0.836642 -3.208073,0.836642 -0.687441,0 -1.355795,-0.09263 -2.005045,-0.278536 C 11.117473,64.169854 10.544968,63.914221 10.048482,63.588883 9.5901879,63.263546 9.2269982,62.868194 8.9596598,62.403426 8.6541302,61.938658 8.5018066,61.404105 8.5018066,60.799906 l 0.1715658,-0.836641 c 0.076382,-1.161921 0.572726,-3.067267 1.4893146,-5.716447 0.95478,-2.695657 2.157817,-5.739967 3.609082,-9.132776 1.451266,-3.439286 3.074484,-7.041435 4.86947,-10.806059 1.833178,-3.764624 3.685398,-7.296396 5.556767,-10.596252 1.871369,-3.346332 3.685767,-6.251441 5.442562,-8.714714 1.756795,-2.463272 3.303335,-4.136272 4.640027,-5.0193315 0.802015,-0.4647683 1.814389,-0.9061754 3.036507,-1.3244669 1.26031,-0.4182916 2.501169,-0.7903563 3.723287,-1.1156942 1.222118,-0.3253379 2.310654,-0.5809709 3.265434,-0.7668782 0.95478,-0.2323842 1.584794,-0.348816 1.890324,-0.348816 z m 33.856848,0.4185791 c 0.458294,0 0.916299,0.023286 1.374593,0.069763 0.496485,0.046477 0.974176,0.1163359 1.432471,0.2092896 h 0.05736 c 1.031163,0.046477 1.775678,0.3714521 2.233973,0.975651 0.458294,0.6041989 0.649474,1.3478117 0.573091,2.2308721 -0.03819,0.929536 -0.286363,1.905496 -0.744657,2.927986 -0.420103,1.022491 -1.012295,1.998967 -1.776119,2.928504 -0.725633,0.929537 -1.603819,1.742492 -2.634981,2.439644 -0.992972,0.697153 -2.081507,1.139077 -3.265434,1.324984 -1.031163,0.325338 -1.929035,0.627027 -2.692859,0.905888 -0.725633,0.232384 -1.355647,0.488017 -1.890324,0.766878 -0.534677,0.278861 -1.011851,0.604353 -1.431954,0.976168 -0.381912,0.371814 -0.745102,0.813222 -1.088822,1.324467 l -0.343649,0.488342 c -0.687441,0.976014 -1.279116,1.928687 -1.775602,2.858223 -0.496485,0.88306 -0.916667,1.812447 -1.260388,2.788461 l -0.687297,1.812809 c 0.725633,0.371815 1.431809,0.557589 2.119251,0.557589 0.95478,0 1.909645,-0.09315 2.864425,-0.279053 0.95478,-0.232384 1.756804,-0.348299 2.406054,-0.348299 0.649251,0 0.974101,0.232347 0.974101,0.697115 0,0.09295 -0.07668,0.3253 -0.229443,0.697115 -0.30553,0.697153 -0.668203,1.440765 -1.088306,2.230872 -0.381912,0.743629 -0.859086,1.463955 -1.431954,2.161108 -0.534677,0.697153 -1.146038,1.34762 -1.83348,1.951819 -0.687441,0.557722 -1.451126,0.999646 -2.291333,1.324984 h 0.05736 c -0.763824,0.185907 -1.279337,0.325108 -1.546676,0.418062 -0.267338,0.09295 -0.516026,0.186099 -0.745174,0.279053 -0.229147,0.04648 -0.55348,0.116335 -0.973584,0.209289 -0.420103,0.04648 -1.126796,0.09253 -2.119767,0.13901 -0.343721,0.511245 -0.801725,1.231571 -1.374593,2.161108 -0.534677,0.88306 -1.06936,1.83625 -1.604036,2.85874 -0.534677,1.022491 -0.993198,1.99845 -1.37511,2.927987 -0.381912,0.88306 -0.591745,1.5801 -0.629936,2.091345 0,0.278861 0.229002,0.511208 0.687296,0.697115 0.458295,0.139431 0.992978,0.255863 1.604037,0.348816 0.611059,0.04648 1.203251,0.06976 1.776119,0.06976 h 1.145666 c 0.763824,0 1.527509,-0.04657 2.291333,-0.139526 0.802016,-0.09295 1.794703,-0.232672 2.97863,-0.418579 0.30553,0.185907 0.515879,0.394968 0.630452,0.627352 0.114574,0.232384 0.171566,0.465248 0.171566,0.697632 -0.03819,0.232384 -0.09518,0.4875 -0.171566,0.766361 -0.03819,0.232384 -0.05736,0.465248 -0.05736,0.697632 -0.07638,0.790106 0.28629,1.417287 1.088305,1.882056 0.07638,0.09295 0.114722,0.232671 0.114722,0.418579 0,0.371815 -0.19118,0.859794 -0.573092,1.463993 -0.381912,0.557722 -0.878255,1.161617 -1.489314,1.812293 -0.572868,0.697152 -1.260392,1.348136 -2.062407,1.952335 -0.763824,0.604199 -1.546679,1.068892 -2.348694,1.39423 h 0.05736 c -1.833177,0.557722 -3.456396,0.952557 -4.86947,1.184941 -1.374883,0.278861 -2.826092,0.418579 -4.353739,0.418579 h -2.63498 c -1.107545,0 -2.21525,-0.139718 -3.322794,-0.418579 -1.107545,-0.232384 -2.081579,-0.673791 -2.921786,-1.324467 -0.802015,-0.650676 -1.164688,-1.603349 -1.088306,-2.858223 0,-0.139431 0.03834,-0.348491 0.114722,-0.627352 0.572868,-3.625194 1.317384,-7.064855 2.233972,-10.318234 0.916589,-3.299855 2.024294,-6.529939 3.322795,-9.690364 1.298501,-3.206902 2.768879,-6.4137 4.4111,-9.620602 1.680413,-3.253378 3.551803,-6.669753 5.614128,-10.24847 0.420103,-0.743629 0.725784,-1.556584 0.91674,-2.439644 0.229147,-0.929537 0.41981,-1.836154 0.572575,-2.719214 0.190956,-0.88306 0.419958,-1.673245 0.687296,-2.370398 0.30553,-0.697152 0.744881,-1.207902 1.317749,-1.53324 2.978914,-1.301351 5.938839,-2.4170287 8.879561,-3.3465655 2.978914,-0.9760137 5.652328,-1.4639934 8.020183,-1.4639934 z m 29.331025,0.1395264 c 0.61106,0 1.20274,0.092629 1.7756,0.278536 0.61106,0.1394305 1.14575,0.3717772 1.60404,0.6971151 0.45829,0.3253378 0.82097,0.7206889 1.08831,1.1854573 0.26733,0.4647684 0.38235,0.9760349 0.34416,1.5337569 0,0.697152 -0.36319,1.579966 -1.08882,2.648934 1.14573,0.743629 1.83326,1.929165 2.0624,3.555855 -1.10754,3.53224 -2.17691,7.041243 -3.20807,10.527006 l -2.97863,10.457243 c -0.99297,3.439286 -2.00534,6.901716 -3.03651,10.387479 -1.03116,3.485763 -2.11969,6.994767 -3.26543,10.527006 l -0.57257,1.533757 c -0.15277,0.511245 -0.28644,0.975938 -0.40101,1.39423 -0.11458,0.418292 -0.26742,0.882985 -0.45837,1.39423 -0.61106,0.650676 -1.336925,1.161942 -2.177131,1.533757 -0.840206,0.371814 -1.660884,0.557588 -2.462899,0.557588 -0.496485,0 -1.012515,-0.06934 -1.547192,-0.208772 -0.496486,-0.09295 -0.97366,-0.279245 -1.431954,-0.558106 -0.420103,-0.232384 -0.763607,-0.534073 -1.030945,-0.905888 -0.267338,-0.371814 -0.401009,-0.813738 -0.401009,-1.324983 0.03819,-0.650676 0.267193,-1.556777 0.687296,-2.718698 0.458295,-1.208397 0.801798,-2.486562 1.030945,-3.834391 l 0.802019,-3.276802 c -0.649251,0.185907 -1.279265,0.44154 -1.890324,0.766878 -0.572868,0.325338 -1.107551,0.674116 -1.604037,1.045931 -0.458294,0.325338 -0.878476,0.627543 -1.260388,0.906404 -0.343721,0.278862 -0.611062,0.487922 -0.802018,0.627352 -0.534677,0.371815 -1.011851,0.627448 -1.431954,0.766879 -0.381912,0.09295 -0.745102,0.162812 -1.088823,0.209289 -0.305529,0 -0.610693,0.04657 -0.916223,0.139527 -0.267338,0.04648 -0.53468,0.185678 -0.802018,0.418062 -1.451266,2.463272 -2.940813,4.508337 -4.468461,6.135026 -1.527648,1.626689 -3.170036,2.440161 -4.926831,2.440161 -0.381912,0 -0.782924,-0.09315 -1.203027,-0.279053 -0.381912,-0.13943 -0.725416,-0.371777 -1.030945,-0.697115 -0.30553,-0.325338 -0.553702,-0.743458 -0.744658,-1.254704 -0.229147,-0.511245 -0.324995,-1.138943 -0.286804,-1.882572 0.03819,-0.88306 0.248541,-1.952165 0.630453,-3.207039 0.34372,-1.254875 0.744733,-2.463181 1.203027,-3.625102 0.458294,-1.208398 0.897129,-2.277503 1.317232,-3.207039 0.420103,-0.976014 0.725784,-1.649768 0.91674,-2.021582 1.833178,-3.671671 3.781246,-7.343162 5.843571,-11.014832 2.062325,-3.67167 4.238879,-7.227246 6.530351,-10.666532 2.291472,-3.485763 4.697545,-6.808993 7.218164,-9.969418 2.520619,-3.206902 5.194033,-6.181353 8.020183,-8.9234861 l -0.0574,0.069763 1.43247,-0.6971151 c 0.72563,-0.3718147 1.43181,-0.6973067 2.11925,-0.9761678 0.72563,-0.3253378 1.37533,-0.4878255 1.9482,-0.4878255 z m 27.8412,0.4878255 c 1.18392,0 2.15796,0.2789194 2.92178,0.8366415 0.80202,0.557722 1.16469,1.5103951 1.08831,2.8582233 -0.0382,0.232384 -0.0765,0.488017 -0.11472,0.766878 0,0.278861 -0.0383,0.557781 -0.11473,0.836642 v -0.06976 c -0.99297,2.974517 -2.253,5.925682 -3.78064,8.853723 -1.52765,2.928041 -3.22703,5.995637 -5.0984,9.202539 -1.83318,3.160425 -3.81907,6.530227 -5.95778,10.108944 -2.1387,3.578716 -4.29661,7.459267 -6.4735,11.642183 -0.0382,0.09295 -0.0574,0.186099 -0.0574,0.279053 -0.0382,0.185907 1.4e-4,0.394967 0.11472,0.627352 0.53467,0 1.12635,-0.09315 1.7756,-0.279053 0.64925,-0.185907 1.33677,-0.394968 2.06241,-0.627352 0.72563,-0.232384 1.45149,-0.441445 2.17712,-0.627352 0.72564,-0.185907 1.43181,-0.279053 2.11925,-0.279053 0.42011,0 0.82112,0.06986 1.20303,0.20929 0.4201,0.13943 0.78329,0.302435 1.08882,0.488342 -0.0382,0.139431 -0.0574,0.255346 -0.0574,0.348299 0,0.09295 -0.0192,0.186099 -0.0574,0.279053 0,0.511245 0.0953,0.952652 0.28629,1.324467 0.19096,0.371815 0.40131,0.720593 0.63045,1.045931 0.22915,0.325338 0.43898,0.6736 0.62994,1.045414 0.19095,0.325338 0.28629,0.720689 0.28629,1.185458 -0.0382,0.371814 -0.13353,0.789935 -0.28629,1.254703 -0.15277,0.418292 -0.40094,0.929558 -0.74466,1.533757 -0.61106,1.068967 -1.29858,1.882439 -2.06241,2.440161 -0.72563,0.604199 -1.47014,1.045606 -2.23397,1.324467 -0.72563,0.278861 -1.43232,0.441349 -2.11977,0.487826 -0.64925,0.09295 -1.22227,0.139526 -1.71875,0.139526 -0.57287,0 -1.14589,0.02329 -1.71876,0.06976 -0.57287,0.04648 -1.18371,0.06976 -1.83296,0.06976 -0.68745,0 -1.4703,-0.02329 -2.3487,-0.06976 -0.8784,-0.04648 -1.94776,-0.06976 -3.20807,-0.06976 h -0.85938 c -0.22915,0.04648 -0.47732,0.06976 -0.74466,0.06976 h -0.68729 c -0.99298,0 -1.85251,-0.255633 -2.57814,-0.766878 -0.68744,-0.511245 -1.06929,-1.696265 -1.14567,-3.555339 0,-0.790106 -0.0762,-1.417804 -0.22892,-1.882572 -0.11458,-0.511245 -0.2296,-0.929366 -0.34417,-1.254704 h 0.0574 c -0.11457,-0.325338 -0.17156,-0.720689 -0.17156,-1.185457 0,-0.511246 0.24817,-1.463919 0.74465,-2.858224 0.49649,-1.394305 1.1265,-3.044018 1.89033,-4.949568 0.80201,-1.952028 1.71854,-4.066951 2.7497,-6.344316 1.06935,-2.277365 2.15789,-4.554776 3.26543,-6.832141 1.10755,-2.323842 2.21525,-4.55468 3.3228,-6.692615 1.14573,-2.184411 2.19593,-4.113044 3.15071,-5.78621 0.95478,-1.719643 1.79514,-3.276728 2.52078,-4.671033 0.64925,-1.208398 1.24092,-2.300789 1.7756,-3.276802 0.53468,-1.022491 0.84036,-1.626385 0.91674,-1.812293 l -0.0574,0.06976 c 0.26734,-0.743629 0.76368,-1.440669 1.48931,-2.091345 0.72564,-0.650676 1.566,-1.2318007 2.52078,-1.7430459 0.95478,-0.5112452 1.96664,-0.9065963 3.03599,-1.1854573 1.06935,-0.3253379 2.06256,-0.4878256 2.97915,-0.4878256 z m 27.32598,0 c 1.18392,0 2.15744,0.2789194 2.92127,0.8366415 0.80201,0.557722 1.1652,1.5103951 1.08882,2.8582233 -0.0382,0.232384 -0.0765,0.488017 -0.11472,0.766878 0,0.278861 -0.0383,0.557781 -0.11473,0.836642 v -0.06976 c -0.99297,2.974517 -2.253,5.925682 -3.78064,8.853723 -1.52765,2.928041 -3.22755,5.995637 -5.09892,9.202539 -1.83317,3.160425 -3.81907,6.530227 -5.95777,10.108944 -2.13871,3.578716 -4.29661,7.459267 -6.47351,11.642183 -0.0382,0.09295 -0.0568,0.186099 -0.0568,0.279053 -0.0382,0.185907 -3.7e-4,0.394967 0.1142,0.627352 0.53468,0 1.12687,-0.09315 1.77612,-0.279053 0.64925,-0.185907 1.33677,-0.394968 2.06241,-0.627352 0.72563,-0.232384 1.45097,-0.441445 2.17661,-0.627352 0.72563,-0.185907 1.43232,-0.279053 2.11976,-0.279053 0.42011,0 0.82112,0.06986 1.20303,0.20929 0.42011,0.13943 0.78278,0.302435 1.08831,0.488342 -0.0382,0.139431 -0.0574,0.255346 -0.0574,0.348299 0,0.09295 -0.0192,0.186099 -0.0574,0.279053 0,0.511245 0.0958,0.952652 0.2868,1.324467 0.19096,0.371815 0.40079,0.720593 0.62994,1.045931 0.22914,0.325338 0.43949,0.6736 0.63045,1.045414 0.19095,0.325338 0.28629,0.720689 0.28629,1.185458 -0.0382,0.371814 -0.13353,0.789935 -0.28629,1.254703 -0.15277,0.418292 -0.40145,0.929558 -0.74518,1.533757 -0.61105,1.068967 -1.29806,1.882439 -2.06189,2.440161 -0.72563,0.604199 -1.47066,1.045606 -2.23448,1.324467 -0.72564,0.278861 -1.43233,0.441349 -2.11977,0.487826 -0.64925,0.09295 -1.22176,0.139526 -1.71824,0.139526 -0.57287,0 -1.14589,0.02329 -1.71876,0.06976 -0.57287,0.04648 -1.18371,0.06976 -1.83296,0.06976 -0.68745,0 -1.4703,-0.02329 -2.3487,-0.06976 -0.8784,-0.04648 -1.94776,-0.06976 -3.20807,-0.06976 h -0.85938 c -0.22915,0.04648 -0.47732,0.06976 -0.74466,0.06976 h -0.68781 c -0.99297,0 -1.85199,-0.255633 -2.57762,-0.766878 -0.68744,-0.511245 -1.06928,-1.696265 -1.14567,-3.555339 0,-0.790106 -0.0767,-1.417804 -0.22944,-1.882572 -0.11457,-0.511245 -0.22908,-0.929366 -0.34365,-1.254704 h 0.0574 c -0.11457,-0.325338 -0.17208,-0.720689 -0.17208,-1.185457 0,-0.511246 0.24817,-1.463919 0.74466,-2.858224 0.49648,-1.394305 1.12701,-3.044018 1.89084,-4.949568 0.80201,-1.952028 1.71854,-4.066951 2.7497,-6.344316 1.06935,-2.277365 2.15789,-4.554776 3.26543,-6.832141 1.10755,-2.323842 2.21474,-4.55468 3.32228,-6.692615 1.14574,-2.184411 2.19645,-4.113044 3.15123,-5.78621 0.95478,-1.719643 1.79463,-3.276728 2.52026,-4.671033 0.64925,-1.208398 1.24144,-2.300789 1.77612,-3.276802 0.53468,-1.022491 0.83984,-1.626385 0.91622,-1.812293 l -0.0568,0.06976 c 0.26734,-0.743629 0.76368,-1.440669 1.48931,-2.091345 0.72564,-0.650676 1.566,-1.2318007 2.52078,-1.7430459 0.95478,-0.5112452 1.96664,-0.9065963 3.03599,-1.1854573 1.06935,-0.3253379 2.06256,-0.4878256 2.97915,-0.4878256 z M 41.384037,17.088363 c -0.611059,0 -1.164395,0.232346 -1.66088,0.697115 -0.496486,0.464768 -0.935837,0.952748 -1.317749,1.463993 h 0.05736 l -0.744658,0.697632 -0.229443,0.208773 c -0.496486,0.929536 -0.897498,1.673149 -1.203028,2.230871 -0.267338,0.557722 -0.49634,1.022416 -0.687296,1.39423 -0.190956,0.371815 -0.362966,0.697307 -0.515731,0.976168 -0.114573,0.278861 -0.248244,0.581067 -0.401009,0.906405 -0.64925,1.347828 -1.145594,2.440219 -1.489315,3.276802 l -0.802018,1.951819 c -0.229147,0.511245 -0.381988,0.882793 -0.45837,1.115178 l 0.343648,0.348816 1.776119,-1.394231 c 0.878398,-0.511245 1.661253,-0.975938 2.348694,-1.39423 0.725633,-0.464768 1.374817,-0.976034 1.947685,-1.533756 0.572868,-0.604199 1.107551,-1.324526 1.604036,-2.161109 0.534677,-0.836583 1.06936,-1.928974 1.604037,-3.276802 0.03819,-0.557722 0.248024,-1.138847 0.629936,-1.743046 0.381911,-0.650676 0.592261,-1.301143 0.630452,-1.951819 0,-0.325338 -0.114501,-0.697403 -0.343648,-1.115694 -0.190956,-0.464769 -0.554146,-0.697115 -1.088823,-0.697115 z m 59.521433,10.387996 -3.036508,4.322217 c -0.30553,0.743629 -0.668203,1.557101 -1.088306,2.440161 -0.381912,0.836583 -0.744585,1.626252 -1.088306,2.369881 l -4.754748,9.621118 5.384684,-0.209289 c 0.534677,-2.044981 1.06936,-4.113332 1.604036,-6.204789 0.572868,-2.137935 1.16506,-4.229572 1.776119,-6.274553 l 1.661399,-5.78621 z m -1.260389,41.759208 c 1.183929,0 2.272459,0.394835 3.265429,1.184941 0.99298,0.743629 1.81365,1.766161 2.4629,3.067513 0,0.232384 0.0383,0.53459 0.11472,0.906404 0.11458,0.371815 0.20991,0.767166 0.28629,1.185458 l 0.22945,1.603003 c 0.30553,1.533735 0.42003,3.207252 0.34364,5.019848 -0.11457,2.556227 -0.53475,5.275044 -1.26038,8.156608 -0.72564,2.835088 -1.64216,5.693624 -2.74971,8.575188 -1.06935,2.83509 -2.27239,5.57719 -3.609079,8.22637 -1.336692,2.6027 -2.65423,4.92617 -3.952731,6.97115 -1.183927,1.8126 -2.482295,3.62532 -3.895369,5.43791 -1.374883,1.76612 -2.883601,3.34649 -4.525822,4.7408 -1.60403,1.3943 -3.32258,2.50946 -5.155758,3.34605 -1.833177,0.88306 -3.742907,1.32498 -5.728849,1.32498 -2.21509,0 -4.08648,-0.44192 -5.614128,-1.32498 -1.489456,-0.83659 -2.692493,-1.92846 -3.609082,-3.27629 -0.878397,-1.34783 -1.508412,-2.88162 -1.890324,-4.60127 -0.34372,-1.71964 -0.477391,-3.41593 -0.401009,-5.08909 0.07638,-2.04498 0.382063,-4.18319 0.91674,-6.41408 0.534677,-2.23089 1.203031,-4.46173 2.005046,-6.69262 0.802015,-2.230885 1.680201,-4.41515 2.634981,-6.553085 0.95478,-2.137934 1.890475,-4.11314 2.807064,-5.925736 v 0.06976 c 0.611059,-1.115444 1.355575,-2.347553 2.233972,-3.695382 0.878398,-1.394305 1.79544,-2.765099 2.75022,-4.112927 0.992971,-1.394305 2.004828,-2.695757 3.03599,-3.904155 1.069354,-1.208397 2.081211,-2.230929 3.035991,-3.067513 1.336692,-1.161921 2.750077,-2.044735 4.239534,-2.648933 1.489457,-0.604199 2.940665,-0.906405 4.35374,-0.906405 0.534676,0 1.069359,0.06986 1.604036,0.209289 0.534677,0.09295 1.06936,0.255442 1.604036,0.487826 0.763824,-0.790106 1.50834,-1.371231 2.233973,-1.743046 0.763824,-0.371815 1.508856,-0.557589 2.234489,-0.557589 z m 39.470459,0 c 1.18393,0 2.27246,0.394835 3.26543,1.184941 0.99297,0.743629 1.81417,1.766161 2.46342,3.067513 0,0.232384 0.0378,0.53459 0.1142,0.906404 0.11458,0.371815 0.21043,0.767166 0.28681,1.185458 l 0.22892,1.603003 c 0.30553,1.533735 0.42004,3.207252 0.34365,5.019848 -0.11457,2.556227 -0.53475,5.275044 -1.26039,8.156608 -0.72563,2.835088 -1.64215,5.693624 -2.7497,8.575188 -1.06935,2.83509 -2.27239,5.57719 -3.60908,8.22637 -1.33669,2.6027 -2.65423,4.92617 -3.95273,6.97115 -1.18393,1.8126 -2.4823,3.62532 -3.89537,5.43791 -1.37488,1.76612 -2.8836,3.34649 -4.52582,4.7408 -1.60403,1.3943 -3.32258,2.50946 -5.15576,3.34605 -1.83318,0.88306 -3.74291,1.32498 -5.72885,1.32498 -2.21509,0 -4.08648,-0.44192 -5.61413,-1.32498 -1.48945,-0.83659 -2.69249,-1.92846 -3.60908,-3.27629 -0.8784,-1.34783 -1.50841,-2.88162 -1.89032,-4.60127 -0.34372,-1.71964 -0.47739,-3.41593 -0.40101,-5.08909 0.0764,-2.04498 0.38206,-4.18319 0.91674,-6.41408 0.53468,-2.23089 1.20303,-4.46173 2.00504,-6.69262 0.80202,-2.230885 1.68021,-4.41515 2.63499,-6.553085 0.95478,-2.137934 1.89047,-4.11314 2.80706,-5.925736 v 0.06976 c 0.61106,-1.115444 1.35609,-2.347553 2.23449,-3.695382 0.8784,-1.394305 1.79492,-2.765099 2.7497,-4.112927 0.99297,-1.394305 2.00483,-2.695757 3.03599,-3.904155 1.06935,-1.208397 2.08173,-2.230929 3.03651,-3.067513 1.33669,-1.161921 2.74956,-2.044735 4.23902,-2.648933 1.48945,-0.604199 2.94066,-0.906405 4.35374,-0.906405 0.53467,0 1.06936,0.06986 1.60403,0.209289 0.53468,0.09295 1.06936,0.255442 1.60404,0.487826 0.76382,-0.790106 1.50885,-1.371231 2.23449,-1.743046 0.76382,-0.371815 1.50834,-0.557589 2.23397,-0.557589 z m 26.81025,0.697115 c 1.33669,0 2.61589,0.302206 3.83801,0.906405 1.26031,0.557722 2.42552,1.301335 3.49488,2.230871 1.10754,0.929537 2.1194,1.952069 3.03599,3.067514 0.91658,1.115444 1.73778,2.207835 2.46341,3.276802 0.95478,1.440782 1.62313,2.99735 2.00505,4.670516 0.38191,1.673166 0.53475,3.392738 0.45837,5.158858 -0.0764,1.812597 -0.3629,3.741746 -0.85938,5.786727 -0.49649,2.044981 -1.14567,4.20596 -1.94769,6.483325 -1.03116,2.74213 -2.44455,5.50752 -4.23953,8.29613 -1.79499,2.78862 -3.80005,5.34495 -6.01514,7.66879 -2.21509,2.27736 -4.54448,4.13665 -6.98872,5.57743 -2.40604,1.44079 -4.77378,2.16111 -7.10344,2.16111 -0.61106,0 -1.35609,-0.0931 -2.23449,-0.27905 -0.76382,1.39431 -1.62284,2.39355 -2.57762,2.99775 -0.95478,0.65068 -1.92882,0.97617 -2.92179,0.97617 -0.76382,0 -1.48968,-0.18629 -2.17712,-0.55811 -0.68745,-0.37181 -1.29829,-0.88256 -1.83297,-1.53324 -0.49648,-0.6042 -0.8975,-1.34833 -1.20302,-2.23139 -0.26734,-0.88306 -0.38184,-1.81244 -0.34365,-2.78846 v -0.55758 c 0.68744,-3.99701 1.60396,-7.76165 2.7497,-11.29389 1.14574,-3.53224 2.38711,-6.87875 3.7238,-10.039179 1.3367,-3.206902 2.69206,-6.297268 4.06694,-9.271786 1.41307,-2.974518 2.71196,-5.902913 3.89588,-8.784477 0.15277,-0.604198 0.34343,-1.301238 0.57258,-2.091345 0.22915,-0.790106 0.47732,-1.603578 0.74466,-2.440161 0.26734,-0.836583 0.57302,-1.626768 0.91674,-2.370398 0.38191,-0.790106 0.80209,-1.440573 1.26039,-1.951819 0.49648,-0.557722 1.05033,-1.022415 1.66139,-1.39423 0.64925,-0.418291 1.29844,-0.743783 1.94769,-0.976168 0.64925,-0.232384 1.27926,-0.394871 1.89032,-0.487825 0.64925,-0.139431 1.22227,-0.20929 1.71876,-0.20929 z M 60.288826,70.281498 c 1.718604,0 3.169813,0.27892 4.35374,0.836642 1.222118,0.511245 2.215322,1.231571 2.979146,2.161108 1.374883,1.626689 2.004898,3.950156 1.890324,6.971151 -0.114573,2.556226 -0.821266,5.368189 -2.119767,8.435661 -0.763824,1.673166 -1.775681,2.904758 -3.035991,3.694864 -1.260309,0.74363 -2.482515,1.115695 -3.666442,1.115695 -0.878398,0 -1.603744,-0.209061 -2.176612,-0.627352 -0.572868,-0.418292 -0.840209,-0.952844 -0.802018,-1.60352 L 57.424402,89.731991 C 56.851534,88.7095 56.04951,88.198234 55.018347,88.198234 c -1.069353,0 -2.329382,0.464693 -3.780648,1.39423 -1.451265,0.929537 -2.921643,2.114557 -4.4111,3.555339 -1.451265,1.440782 -2.807142,2.997866 -4.067452,4.671032 -1.222118,1.673167 -2.157813,3.253535 -2.807064,4.740795 -0.534676,1.2084 -0.993198,2.32356 -1.37511,3.34605 -0.381912,0.97601 -0.591744,1.97526 -0.629935,2.99775 -0.07638,1.02249 0.05729,1.90582 0.401009,2.64945 0.343721,0.69715 0.783072,1.27828 1.317749,1.74305 0.572868,0.46477 1.202882,0.81303 1.890324,1.04541 0.687441,0.18591 1.374965,0.27905 2.062406,0.27905 1.145736,0 2.272094,-0.23234 3.379639,-0.69711 1.145736,-0.51125 2.177279,-1.09237 3.093868,-1.74305 0.95478,-0.69715 1.756804,-1.39419 2.406055,-2.09134 0.64925,-0.74363 1.068915,-1.32476 1.259871,-1.74305 l 0.172083,-0.27905 -0.286288,-0.55759 c -0.840206,0.51125 -1.604408,0.76688 -2.29185,0.76688 -0.64925,0.0465 -1.202586,-0.11601 -1.66088,-0.48783 -0.420103,-0.41829 -0.840285,-0.8597 -1.260388,-1.32446 -0.229148,-0.27887 -0.496489,-0.48844 -0.802019,-0.62787 -0.267338,-0.18591 -0.51551,-0.3484 -0.744657,-0.48783 -0.229147,-0.13943 -0.420327,-0.30192 -0.573092,-0.48782 -0.114573,-0.23239 -0.172082,-0.51131 -0.172082,-0.83665 0.03819,-1.02249 0.458373,-1.9291 1.260388,-2.71921 0.802015,-0.83658 1.77605,-1.533622 2.921785,-2.091344 1.183928,-0.557722 2.425303,-0.975843 3.723804,-1.254704 1.336692,-0.325338 2.558898,-0.487826 3.666443,-0.487826 2.21509,0 3.74246,0.48798 4.582666,1.463994 0.878398,0.976013 1.27941,2.34681 1.203027,4.11293 -0.03819,0.97601 -0.210201,2.02183 -0.51573,3.13727 -0.267339,1.06897 -0.630012,2.16136 -1.088306,3.27681 -0.420103,1.06896 -0.897277,2.0915 -1.431954,3.06751 -0.534677,0.97601 -1.088529,1.83554 -1.661397,2.57917 -0.802015,1.02249 -1.909721,2.27737 -3.322795,3.76463 -1.413074,1.44078 -3.093285,2.85815 -5.041036,4.25245 -1.90956,1.34783 -4.048291,2.51008 -6.416146,3.48609 -2.367854,0.97602 -4.869258,1.464 -7.504451,1.464 -2.176899,0 -4.029636,-0.27892 -5.557284,-0.83664 -1.489456,-0.55773 -2.692493,-1.3712 -3.609082,-2.44017 -0.878397,-1.06896 -1.489242,-2.37041 -1.832963,-3.90415 -0.343721,-1.58021 -0.477391,-3.39241 -0.401009,-5.43739 0.114574,-2.60271 0.573095,-5.43796 1.37511,-8.50543 0.840206,-3.11395 1.928225,-6.20483 3.264917,-9.272301 1.374883,-3.113948 2.960279,-6.111685 4.755265,-8.993249 1.794987,-2.928041 3.723369,-5.507658 5.785694,-7.738546 1.260309,-1.301352 2.425006,-2.439799 3.49436,-3.415812 1.069354,-1.022491 2.157889,-1.928591 3.265434,-2.718697 1.145736,-0.790107 2.387111,-1.487664 3.723803,-2.091862 1.336692,-0.604199 2.883232,-1.184808 4.640027,-1.74253 0.763824,-0.232384 1.604188,-0.395388 2.520777,-0.488342 0.95478,-0.139431 1.737634,-0.208773 2.348693,-0.208773 z m 32.309656,13.873055 c -1.451265,1.812597 -3.073967,3.904234 -4.868953,6.274553 -1.794987,2.370318 -3.551876,4.903362 -5.27048,7.599019 -1.718603,2.649175 -3.28483,5.391285 -4.697904,8.226375 -1.374883,2.83508 -2.40591,5.60047 -3.093351,8.29613 l -0.171566,1.32447 c 0.03819,0.23238 0.07601,0.60445 0.114205,1.11569 0.07638,0.46477 0.190883,0.97604 0.343648,1.53376 0.152765,0.51124 0.363114,1.02251 0.630453,1.53375 0.267338,0.46477 0.610841,0.81303 1.030945,1.04542 l 1.031461,-0.90641 c 0.267338,-0.23238 0.55385,-0.46473 0.859379,-0.69711 0.343721,-0.27886 0.629715,-0.58107 0.858862,-0.90641 1.604031,-1.95202 3.151087,-4.29878 4.640544,-7.04091 1.527648,-2.78861 2.883525,-5.73977 4.067452,-8.85372 1.183927,-3.113951 2.176614,-6.274692 2.97863,-9.481594 0.802015,-3.206902 1.317528,-6.227926 1.546675,-9.063013 z m 39.470978,0 c -1.45127,1.812597 -3.07449,3.904234 -4.86947,6.274553 -1.79499,2.370318 -3.55188,4.903362 -5.27048,7.599019 -1.71861,2.649175 -3.28431,5.391285 -4.69739,8.226375 -1.37488,2.83508 -2.40643,5.60047 -3.09387,8.29613 l -0.17156,1.32447 c 0.0382,0.23238 0.0765,0.60445 0.11472,1.11569 0.0764,0.46477 0.19088,0.97604 0.34365,1.53376 0.15276,0.51124 0.36259,1.02251 0.62993,1.53375 0.26734,0.46477 0.61136,0.81303 1.03146,1.04542 l 1.03095,-0.90641 c 0.26734,-0.23238 0.55385,-0.46473 0.85938,-0.69711 0.34372,-0.27886 0.63023,-0.58107 0.85938,-0.90641 1.60403,-1.95202 3.15057,-4.29878 4.64002,-7.04091 1.52765,-2.78861 2.88353,-5.73977 4.06746,-8.85372 1.18392,-3.113951 2.17661,-6.274692 2.97863,-9.481594 0.80201,-3.206902 1.31804,-6.227926 1.54719,-9.063013 z m 33.28324,1.185458 c -1.06936,2.044981 -1.85221,3.834412 -2.3487,5.368147 -0.45829,1.533736 -0.99297,3.043731 -1.60403,4.53099 l -2.57762,6.204792 -2.3487,6.62285 c -0.11457,0.55772 -0.22959,1.04622 -0.34416,1.46451 -0.0764,0.37181 -0.19089,0.76665 -0.34365,1.18494 -0.11457,0.37181 -0.24824,0.78993 -0.40101,1.2547 -0.15276,0.46477 -0.32426,1.02261 -0.51521,1.67329 l -0.80202,3.41581 3.20807,-2.09135 c 1.10755,-0.74363 2.21473,-1.53381 3.32228,-2.37039 1.10754,-0.88306 2.15774,-1.83574 3.15071,-2.85823 1.03116,-1.02249 1.96686,-2.13765 2.80707,-3.34605 0.8402,-1.2084 1.54689,-2.50985 2.11976,-3.90415 h -0.0574 c 1.26031,-2.695659 1.94783,-5.18213 2.06241,-7.459495 0.0764,-2.137934 -0.38214,-3.904079 -1.37511,-5.298384 -0.95478,-1.440782 -2.27232,-2.904722 -3.95273,-4.39198 z M 58.054854,131.00337 c 1.222119,0 2.329307,0.27892 3.322278,0.83664 1.031163,0.51125 1.909865,1.27815 2.635498,2.30064 0.725633,0.97601 1.260316,2.18432 1.604037,3.6251 0.381912,1.39431 0.534752,2.97468 0.45837,4.7408 -0.07638,1.85907 -0.362894,3.88085 -0.859379,6.06526 -0.458295,2.13793 -1.050487,4.27563 -1.776119,6.41356 -0.687442,2.09146 -1.489466,4.11324 -2.406055,6.06526 -0.878398,1.90556 -1.775753,3.57855 -2.692342,5.01934 -0.878398,1.34782 -1.871602,2.57942 -2.979147,3.69486 -1.069353,1.06897 -2.195711,1.99887 -3.379638,2.78898 -1.183927,0.74363 -2.386964,1.32424 -3.609082,1.74253 -1.183927,0.41829 -2.310802,0.62787 -3.380156,0.62787 -1.107544,0 -2.138571,-0.23235 -3.093351,-0.69712 -0.916589,-0.51124 -1.756952,-1.30143 -2.520776,-2.3704 -0.878398,2.18441 -1.680422,4.34539 -2.406055,6.48333 -0.687442,2.13793 -1.298286,4.3222 -1.832963,6.55309 v -0.0698 c -1.069354,2.32385 -2.367722,4.11328 -3.89537,5.36815 -1.527647,1.25488 -3.265367,1.88257 -5.213118,1.88257 -1.565839,0 -2.921716,-0.4414 -4.067452,-1.32446 -1.107545,-0.88306 -1.623058,-2.23109 -1.546676,-4.04368 0,-0.13943 0.01917,-0.27864 0.05736,-0.41807 0,-0.13943 0.01917,-0.30243 0.05736,-0.48834 v 0.0698 c 1.794986,-4.69416 3.704199,-9.43475 5.728333,-14.22187 2.024133,-4.83359 4.086703,-9.31855 6.187219,-13.45499 0.802015,-1.58021 1.451199,-2.85838 1.947685,-3.83439 0.496485,-0.97601 0.935837,-1.81277 1.317749,-2.50992 0.420103,-0.69716 0.821115,-1.34762 1.203027,-1.95182 0.420103,-0.65068 0.916447,-1.41758 1.489315,-2.30064 1.374883,-2.13793 2.52041,-3.8575 3.436999,-5.15886 0.95478,-1.34782 1.795144,-2.4635 2.520777,-3.34656 0.763824,-0.88306 1.527509,-1.62667 2.291333,-2.23087 0.763824,-0.6042 1.661179,-1.25467 2.692342,-1.95182 1.718604,-1.06897 3.227321,-1.97559 4.525822,-2.71922 1.336692,-0.7901 2.730908,-1.18494 4.182173,-1.18494 z m 55.453466,0.27906 h 1.0883 c 0.34372,0 0.68774,0.0233 1.03146,0.0698 h -0.0574 c 0.95478,0.32534 1.66148,0.85937 2.11977,1.603 l -0.22944,1.60352 0.91674,0.27905 c 0.34372,0.093 0.66857,0.20887 0.9741,0.3483 0.34372,0.093 0.62971,0.27925 0.85886,0.55811 0.22915,0.27886 0.40116,0.69698 0.51573,1.2547 0.15277,0.51125 0.21027,1.23157 0.17208,2.16111 0,0.23239 -0.0192,0.46473 -0.0574,0.69712 0,0.23238 -0.0192,0.46473 -0.0574,0.69711 -0.53467,2.55623 -1.41286,5.11256 -2.63498,7.66878 -1.22212,2.50975 -2.61633,4.97294 -4.18217,7.38973 -1.56584,2.37032 -3.18906,4.64773 -4.86947,6.83214 -1.68042,2.13794 -3.22696,4.11314 -4.64003,5.92574 -1.37488,1.76612 -2.52093,3.32321 -3.43752,4.67103 -0.91659,1.30136 -1.393759,2.3006 -1.43195,2.99775 0,0.51125 0.114501,0.92937 0.343648,1.25471 l 6.358782,0.83664 c 1.18393,0 2.02429,0.25563 2.52078,0.76688 0.49648,0.46477 0.72549,1.11575 0.6873,1.95233 -0.0764,1.8126 -0.72557,3.39245 -1.94769,4.74028 -1.22212,1.30135 -2.78783,2.37046 -4.69739,3.20704 -1.87137,0.88306 -3.971758,1.53405 -6.301421,1.95234 -2.329663,0.41829 -4.659574,0.62735 -6.989237,0.62735 -1.145736,0 -2.329603,-0.0233 -3.551721,-0.0698 -1.222119,-0.0465 -2.348993,-0.25554 -3.380156,-0.62736 -1.031162,-0.37181 -1.871009,-0.99951 -2.520259,-1.88257 -0.649251,-0.88306 -0.935762,-2.13794 -0.859379,-3.76463 0.03819,-1.02249 0.133522,-1.88201 0.286287,-2.57917 0.190956,-0.74363 0.458297,-1.46447 0.802018,-2.16162 0.381912,-0.69716 0.840433,-1.44077 1.37511,-2.23087 0.534677,-0.79011 1.20303,-1.74278 2.005046,-2.85823 l 0.744657,-1.04541 c 1.794986,-2.46327 3.513536,-4.64806 5.155758,-6.55361 1.642221,-1.90555 3.26544,-3.74103 4.86947,-5.50715 1.60403,-1.8126 3.245901,-3.6486 4.926314,-5.50768 1.680413,-1.90555 3.437303,-4.04324 5.270483,-6.41356 l 0.28628,-0.41858 c 0.19096,-0.27886 0.42048,-0.65041 0.68782,-1.11518 0.30553,-0.46477 0.80187,-1.37138 1.48931,-2.71921 -2.10051,0.51124 -3.9719,0.76688 -5.61413,0.76688 -0.68744,0 -1.48946,-0.0233 -2.40605,-0.0698 -0.878398,-0.093 -1.718761,-0.27872 -2.520777,-0.55758 -0.763824,-0.27887 -1.413008,-0.72027 -1.947684,-1.32447 -0.496486,-0.6042 -0.706318,-1.46424 -0.629936,-2.57969 0.07638,-1.67317 0.783075,-3.16039 2.119767,-4.46174 1.374883,-1.34783 3.055094,-2.48628 5.04104,-3.41581 1.98594,-0.97602 4.08633,-1.71963 6.30142,-2.23088 2.21509,-0.51124 4.22015,-0.76687 6.01514,-0.76687 z m 32.71066,0 h 1.08882 c 0.34373,0 0.68723,0.0233 1.03095,0.0698 h -0.0574 c 0.95478,0.32534 1.66147,0.85937 2.11977,1.603 l -0.22945,1.60352 0.91674,0.27905 c 0.34372,0.093 0.66857,0.20887 0.9741,0.3483 0.34372,0.093 0.63023,0.27925 0.85938,0.55811 0.22915,0.27886 0.40064,0.69698 0.51522,1.2547 0.15276,0.51125 0.21027,1.23157 0.17208,2.16111 0,0.23239 -0.0192,0.46473 -0.0574,0.69712 0,0.23238 -0.0192,0.46473 -0.0574,0.69711 -0.53468,2.55623 -1.41287,5.11256 -2.63498,7.66878 -1.22212,2.50975 -2.61634,4.97294 -4.18218,7.38973 -1.56584,2.37032 -3.18906,4.64773 -4.86947,6.83214 -1.68041,2.13794 -3.22695,4.11314 -4.64003,5.92574 -1.37488,1.76612 -2.52041,3.32321 -3.43699,4.67103 -0.91659,1.30136 -1.39428,2.3006 -1.43248,2.99775 0,0.51125 0.11451,0.92937 0.34365,1.25471 l 6.35879,0.83664 c 1.18393,0 2.02429,0.25563 2.52077,0.76688 0.49649,0.46477 0.72549,1.11575 0.6873,1.95233 -0.0764,1.8126 -0.72557,3.39245 -1.94768,4.74028 -1.22212,1.30135 -2.78783,2.37046 -4.69739,3.20704 -1.87137,0.88306 -3.97176,1.53405 -6.30143,1.95234 -2.32966,0.41829 -4.65957,0.62735 -6.98923,0.62735 -1.14574,0 -2.32961,-0.0233 -3.55172,-0.0698 -1.22212,-0.0465 -2.349,-0.25554 -3.38016,-0.62736 -1.03116,-0.37181 -1.87101,-0.99951 -2.52026,-1.88257 -0.64925,-0.88306 -0.93576,-2.13794 -0.85938,-3.76463 0.0382,-1.02249 0.13352,-1.88201 0.28629,-2.57917 0.19095,-0.74363 0.4583,-1.46447 0.80202,-2.16162 0.38191,-0.69716 0.84043,-1.44077 1.37511,-2.23087 0.53467,-0.79011 1.20303,-1.74278 2.00504,-2.85823 l 0.74466,-1.04541 c 1.79499,-2.46327 3.51354,-4.64806 5.15576,-6.55361 1.64222,-1.90555 3.26544,-3.74103 4.86947,-5.50715 1.60403,-1.8126 3.24642,-3.6486 4.92683,-5.50768 1.68041,-1.90555 3.43678,-4.04324 5.26996,-6.41356 l 0.28681,-0.41858 c 0.19095,-0.27886 0.41995,-0.65041 0.68729,-1.11518 0.30553,-0.46477 0.80188,-1.37138 1.48932,-2.71921 -2.10052,0.51124 -3.97191,0.76688 -5.61413,0.76688 -0.68744,0 -1.48947,-0.0233 -2.40606,-0.0698 -0.87839,-0.093 -1.71824,-0.27872 -2.52025,-0.55758 -0.76383,-0.27887 -1.41353,-0.72027 -1.94821,-1.32447 -0.49648,-0.6042 -0.70631,-1.46424 -0.62993,-2.57969 0.0764,-1.67317 0.78307,-3.16039 2.11977,-4.46174 1.37488,-1.34783 3.05509,-2.48628 5.04103,-3.41581 1.98594,-0.97602 4.08634,-1.71963 6.30143,-2.23088 2.21508,-0.51124 4.22015,-0.76687 6.01513,-0.76687 z m -59.062543,0.76687 c 0.763824,0 1.413008,0.25564 1.947685,0.76688 0.572868,0.51125 0.82104,1.30092 0.744657,2.36988 -0.07638,0.97602 -0.419885,2.16155 -1.030945,3.55586 h -0.05736 c -2.176899,5.11245 -4.16279,9.7599 -5.957776,13.94282 -1.756795,4.13644 -3.380014,7.94764 -4.86947,11.43341 -1.489457,3.43928 -2.864504,6.6228 -4.124813,9.55084 -1.26031,2.92804 -2.463346,5.71671 -3.609082,8.36589 -0.534677,1.8126 -1.240853,3.23048 -2.119251,4.25297 -0.840206,1.02249 -1.718909,1.76611 -2.635498,2.23088 -0.916589,0.51124 -1.775605,0.81293 -2.57762,0.90588 -0.802015,0.13943 -1.394207,0.20929 -1.776119,0.20929 -1.871369,0 -3.150567,-0.27892 -3.838009,-0.83664 -0.687441,-0.51124 -1.012292,-1.23157 -0.974101,-2.16111 0.03819,-0.74363 0.248541,-1.64973 0.630453,-2.71869 0.381912,-1.06897 0.839916,-2.25451 1.374593,-3.55586 1.222118,-2.69566 2.616334,-5.83259 4.182174,-9.41131 1.565839,-3.62519 3.150718,-7.27392 4.754748,-10.94559 1.642222,-3.71814 3.227101,-7.24992 4.754749,-10.59625 1.565839,-3.34633 2.978708,-6.11172 4.239017,-8.29613 0.763824,-1.30135 1.451348,-2.1614 2.062407,-2.57969 0.64925,-0.41829 1.260612,-0.7205 1.83348,-0.90641 0.572868,-0.23238 1.126203,-0.5113 1.66088,-0.83664 0.534677,-0.32533 1.088529,-1.04566 1.661397,-2.16111 0.420104,-0.83658 0.973956,-1.46376 1.661398,-1.88205 0.725633,-0.46477 1.413156,-0.69712 2.062406,-0.69712 z m 92.346303,0.41807 c 0.61106,0 1.20325,0.0931 1.77612,0.27905 0.61106,0.13943 1.14574,0.37178 1.60403,0.69711 0.4583,0.32534 0.82097,0.72018 1.08831,1.18494 0.26734,0.46477 0.38184,0.97604 0.34365,1.53376 0,0.69715 -0.36268,1.58048 -1.08831,2.64945 1.14574,0.74363 1.83326,1.92865 2.06241,3.55534 -1.10755,3.53224 -2.17691,7.04124 -3.20807,10.52701 l -2.97915,10.45724 c -0.99297,3.43929 -2.00483,6.90172 -3.03599,10.38748 -1.03116,3.48576 -2.1197,6.99477 -3.26543,10.52701 l -0.5731,1.53375 c -0.15276,0.51125 -0.28643,0.97594 -0.40101,1.39423 -0.11457,0.41829 -0.26741,0.88299 -0.45837,1.39423 -0.61105,0.65068 -1.3364,1.16194 -2.17661,1.53376 -0.8402,0.37181 -1.6614,0.5581 -2.46341,0.5581 -0.49649,0 -1.012,-0.0699 -1.54668,-0.20929 -0.49648,-0.093 -0.97417,-0.27872 -1.43247,-0.55758 -0.4201,-0.23239 -0.76361,-0.53459 -1.03094,-0.90641 -0.26734,-0.37181 -0.40101,-0.81322 -0.40101,-1.32447 0.0382,-0.65067 0.26719,-1.55729 0.68729,-2.71921 0.4583,-1.2084 0.80232,-2.48656 1.03147,-3.83439 l 0.80201,-3.27629 c -0.64925,0.18591 -1.27978,0.44154 -1.89084,0.76688 -0.57286,0.32534 -1.10755,0.6736 -1.60403,1.04542 -0.4583,0.32533 -0.87796,0.62754 -1.25987,0.9064 -0.34373,0.27886 -0.61107,0.48792 -0.80202,0.62735 -0.53468,0.37182 -1.01237,0.62745 -1.43247,0.76688 -0.38192,0.0929 -0.74459,0.16281 -1.08831,0.20929 -0.30553,0 -0.61121,0.0466 -0.91674,0.13953 -0.26734,0.0465 -0.53468,0.18567 -0.80202,0.41806 -1.45126,2.46327 -2.94081,4.50834 -4.46846,6.13502 -1.52765,1.62669 -3.16952,2.44017 -4.92631,2.44017 -0.38191,0 -0.78293,-0.0931 -1.20303,-0.27906 -0.38191,-0.13943 -0.72593,-0.37177 -1.03146,-0.69711 -0.30553,-0.32534 -0.5537,-0.74346 -0.74466,-1.25471 -0.22915,-0.51124 -0.32448,-1.13894 -0.28629,-1.88257 0.0382,-0.88306 0.24803,-1.95165 0.62994,-3.20652 0.34372,-1.25488 0.74473,-2.4637 1.20303,-3.62562 0.45829,-1.2084 0.89764,-2.27699 1.31775,-3.20652 0.4201,-0.97602 0.72578,-1.65029 0.91674,-2.0221 1.83317,-3.67167 3.78072,-7.34316 5.84305,-11.01483 2.06232,-3.67167 4.2394,-7.22725 6.53087,-10.66653 2.29147,-3.48577 4.69754,-6.809 7.21816,-9.96942 2.52062,-3.2069 5.19403,-6.18135 8.02018,-8.92349 l -0.0574,0.0698 1.43196,-0.69711 c 0.72563,-0.37181 1.43232,-0.69731 2.11976,-0.97617 0.72564,-0.32534 1.37482,-0.48782 1.94769,-0.48782 z M 53.35695,144.66766 c -2.367854,3.90405 -4.334576,7.41305 -5.900415,10.527 l -0.802018,1.60352 c -0.649251,1.44078 -1.355427,2.83486 -2.119251,4.18269 -0.725633,1.34783 -1.432326,2.71914 -2.119767,4.11345 l 0.286287,0.48782 c 1.833178,-0.46477 3.398887,-1.39415 4.697388,-2.78846 1.298501,-1.3943 2.367867,-3.02125 3.208073,-4.88032 0.840206,-1.90555 1.470737,-3.92733 1.890841,-6.06526 0.458294,-2.18442 0.725635,-4.29882 0.802018,-6.3438 v -0.41858 c 0.03819,-0.13943 0.05684,-0.27863 0.05684,-0.41806 z m 117.66724,8.29613 -3.03599,4.32222 c -0.30553,0.74363 -0.66821,1.5571 -1.08831,2.44016 -0.38191,0.83658 -0.7451,1.62677 -1.08882,2.3704 l -4.75475,9.6206 5.3852,-0.20929 c 0.53468,-2.04498 1.06936,-4.11333 1.60404,-6.20479 0.57286,-2.13794 1.16454,-4.22906 1.7756,-6.27404 l 1.6614,-5.78672 z" />
</svg>
